<svg width="600" height="492" viewBox="0 0 792 492" fill="none" xmlns="http://www.w3.org/2000/svg">
<rect x="24" y="302" width="27" height="102" fill="#604F25"/>
<rect x="86" y="260" width="27" height="102" fill="#604F25"/>
<path d="M76.5624 258.875L18.2677 294.375C13.088 297.53 15.3238 305.5 21.3884 305.5H54.7792C55.9037 305.5 57.0056 305.184 57.9592 304.588L114.759 269.088C119.871 265.893 117.607 258 111.579 258H79.6832C78.5823 258 77.5027 258.303 76.5624 258.875Z" fill="#604F25"/>
<path d="M36.4122 283.104C25.5025 281.376 18.0592 271.131 19.7871 260.221L21.8832 246.988C21.9695 246.442 22.4818 246.07 23.0273 246.156L152.996 266.741C153.542 266.828 153.914 267.34 153.827 267.886L148.759 299.885C148.673 300.431 148.161 300.803 147.615 300.717L36.4122 283.104Z" fill="#CACACA"/>
<path d="M123 281.809L154.048 267L209.407 383.063C210.596 385.555 209.539 388.539 207.046 389.728L185.024 400.232C182.532 401.421 179.548 400.364 178.359 397.872L123 281.809Z" fill="url(#paint0_linear_202_4055)"/>
<rect x="178" y="225" width="141" height="162" fill="#7C7C7C"/>
<rect x="160" y="238" width="137" height="179" fill="#D9D9D9"/>
<path d="M166.575 207.561L138.601 247.561C135.82 251.538 138.665 257 143.518 257H303.035C304.924 257 306.704 256.11 307.837 254.598L337.808 214.598C340.772 210.642 337.95 205 333.007 205H171.491C169.533 205 167.697 205.956 166.575 207.561Z" fill="#FFF8B5"/>
<ellipse cx="207.087" cy="223.818" rx="16.1286" ry="21.5618" transform="rotate(75.5 207.087 223.818)" fill="#262424"/>
<ellipse cx="215.276" cy="218.354" rx="7.94708" ry="10.6242" transform="rotate(75.5 215.276 218.354)" fill="#9F9F9F"/>
<rect x="43.6411" y="115.511" width="26.3426" height="43.9765" rx="2" transform="rotate(7 43.6411 115.511)" fill="#7E7E7E"/>
<ellipse cx="54.5" cy="102" rx="34.5" ry="36" fill="#D9D9D9"/>
<path d="M63.7139 80.191C73.8896 80.191 80.0991 82.147 83.3707 83.9857C83.995 84.3365 85.3413 83.4866 85.1642 82.7928C85.15 82.7373 85.1298 82.686 85.1015 82.6362C79.0565 71.9975 60.2226 54.7088 32.8562 70.1183C8.84171 83.6404 16.8027 105.441 26.2516 118.17C27.7565 120.198 30.7826 119.262 31.116 116.759L32.7824 104.248C32.8312 103.882 32.9427 103.533 33.1243 103.212C37.6326 95.2356 49.6033 80.191 63.7139 80.191Z" fill="#373737"/>
<rect x="44.8674" y="177.862" width="20.6511" height="89.1161" rx="2" transform="rotate(-19 44.8674 177.862)" fill="#AAAAAA"/>
<path d="M15 166C15 160.477 19.4772 156 25 156H86C95.9411 156 104 164.059 104 174V262H15V166Z" fill="#FFD028"/>
<path d="M47.9491 188.928C46.3204 187.435 46.2099 184.905 47.7024 183.276L52.1958 178.373C55.927 174.301 62.2526 174.025 66.3245 177.756L120.833 227.704C122.462 229.196 122.572 231.726 121.08 233.355L112.533 242.682C111.04 244.311 108.51 244.422 106.881 242.929L47.9491 188.928Z" fill="url(#paint1_linear_202_4055)"/>
<rect x="110.182" y="243.58" width="18.987" height="87.932" rx="2" transform="rotate(-109 110.182 243.58)" fill="#A1A1A1"/>
<path d="M51.5 121.5C67.5 130 77.5 125 75.5 119.5" stroke="#6D6D6D"/>
<path d="M196.894 192.061L186.063 197.388C184.024 198.39 182.918 200.641 183.369 202.868L185.251 212.148C185.675 214.238 187.378 215.829 189.492 216.111L209.441 218.767C210.587 218.919 211.751 218.67 212.734 218.061L218.681 214.377C219.541 213.844 220.219 213.063 220.626 212.136L222.113 208.75C222.576 207.694 222.661 206.51 222.352 205.4L221.19 201.225L220.679 198.435C220.3 196.363 218.663 194.752 216.586 194.404L199.926 191.616C198.893 191.444 197.833 191.599 196.894 192.061Z" fill="#8E8E8E"/>
<rect x="289" y="197" width="11" height="23" fill="#D9D9D9"/>
<path d="M310.5 190L267 217V126L310.5 142V190Z" fill="#292929" stroke="black"/>
<ellipse cx="294.984" cy="219.575" rx="7.5" ry="12.5" transform="rotate(56.5 294.984 219.575)" fill="#D9D9D9"/>
<path d="M288.5 214.5C286.5 219.333 279.8 228.7 269 227.5C255.5 226 257.5 217.5 247.5 217.5C239.5 217.5 227.667 215.167 223 217.5" stroke="black"/>
<circle cx="555.5" cy="384.5" r="32.5" fill="#FFCA41"/>
<ellipse cx="555" cy="376.5" rx="16" ry="18.5" fill="#D9D9D9"/>
<rect x="550" y="387" width="10" height="19" fill="#D9D9D9"/>
<path fill-rule="evenodd" clip-rule="evenodd" d="M578 407.952C572.161 413.556 564.232 417 555.5 417C546.258 417 537.918 413.143 532 406.95V406C532 403.239 534.239 401 537 401H573C575.761 401 578 403.239 578 406V407.952Z" fill="#323232"/>
<path d="M555.333 366.788C560.88 367.95 564.756 364.045 566 361.946C565.111 360.978 561.733 358.847 555.333 358.073C548.933 357.298 543.778 362.915 542 365.82L546.267 366.788C546.978 366.304 549.787 365.626 555.333 366.788Z" fill="#353535"/>
<ellipse cx="555" cy="387.5" rx="9" ry="4.5" fill="#151515"/>
<path d="M564 387L570.062 380.072C570.373 379.716 570.94 379.952 570.882 380.421C569.859 388.68 563.315 392.895 560 394C559 394.333 555.5 394.8 549.5 394C544.22 393.296 540.876 385.83 539.468 380.867C539.327 380.371 539.929 380.062 540.269 380.45L545.929 386.918C545.976 386.972 546.011 387.037 546.033 387.105C547.319 391 554.009 391 555 391C563 391 563.5 387.5 564 387Z" fill="#151515"/>
<circle cx="683.5" cy="155.5" r="32.5" fill="#FFCA41"/>
<ellipse cx="683" cy="147.5" rx="16" ry="18.5" fill="#D9D9D9"/>
<rect x="678" y="158" width="10" height="19" fill="#D9D9D9"/>
<path fill-rule="evenodd" clip-rule="evenodd" d="M706 178.952C700.161 184.556 692.232 188 683.5 188C674.258 188 665.918 184.143 660 177.95V177C660 174.239 662.239 172 665 172H701C703.761 172 706 174.239 706 177V178.952Z" fill="#323232"/>
<path d="M683.333 137.788C688.88 138.95 692.756 135.045 694 132.946C693.111 131.978 689.733 129.847 683.333 129.073C676.933 128.298 671.778 133.915 670 136.82L674.267 137.788C674.978 137.304 677.787 136.626 683.333 137.788Z" fill="#353535"/>
<ellipse cx="683" cy="158.5" rx="9" ry="4.5" fill="#151515"/>
<path d="M692 158L698.062 151.072C698.373 150.716 698.94 150.952 698.882 151.421C697.859 159.68 691.315 163.895 688 165C687 165.333 683.5 165.8 677.5 165C672.22 164.296 668.876 156.83 667.468 151.867C667.327 151.371 667.929 151.062 668.269 151.45L673.929 157.918C673.976 157.972 674.011 158.037 674.033 158.105C675.319 162 682.009 162 683 162C691 162 691.5 158.5 692 158Z" fill="#151515"/>
<circle cx="414.5" cy="155.5" r="22.5" fill="#FFF7AD"/>
<circle cx="414" cy="155" r="8" fill="#D9D9D9"/>
<path d="M420.714 146.307C423.043 148.64 421.684 150.844 420.714 151.654C420.298 150.52 418.302 148.057 413.644 147.28C408.987 146.502 406.436 153.436 405.743 157L402 153.598L403.248 150.196L403.577 146.727C403.626 146.213 404.059 145.794 404.552 145.641C405.72 145.278 407.734 144.366 410.733 142.905C415.724 140.475 417.803 143.391 420.714 146.307Z" fill="#262626"/>
<rect x="412" y="160" width="5" height="9" fill="#D9D9D9"/>
<path fill-rule="evenodd" clip-rule="evenodd" d="M428 172.003C428 172.947 427.563 173.846 426.773 174.361C423.243 176.663 419.028 178 414.5 178C409.972 178 405.757 176.663 402.227 174.361C401.437 173.846 401 172.947 401 172.003V170C401 168.343 402.343 167 404 167H425C426.657 167 428 168.343 428 170V172.003Z" fill="#A9AA7C"/>
<path fill-rule="evenodd" clip-rule="evenodd" d="M414.5 160C416.985 160 419 159.105 419 158H410C410 159.105 412.015 160 414.5 160Z" fill="#FEFEFE"/>
<circle cx="434.5" cy="319.5" r="22.5" fill="#FFF7AD"/>
<circle cx="434" cy="319" r="8" fill="#D9D9D9"/>
<path d="M440.714 310.307C443.043 312.64 441.684 314.844 440.714 315.654C440.298 314.52 438.302 312.057 433.644 311.28C428.987 310.502 426.436 317.436 425.743 321L422 317.598L423.248 314.196L423.577 310.727C423.626 310.213 424.059 309.794 424.552 309.641C425.72 309.278 427.734 308.366 430.733 306.905C435.724 304.475 437.803 307.391 440.714 310.307Z" fill="#262626"/>
<rect x="432" y="324" width="5" height="9" fill="#D9D9D9"/>
<path fill-rule="evenodd" clip-rule="evenodd" d="M448 336.003C448 336.947 447.563 337.846 446.773 338.361C443.243 340.663 439.028 342 434.5 342C429.972 342 425.757 340.663 422.227 338.361C421.437 337.846 421 336.947 421 336.003V334C421 332.343 422.343 331 424 331H445C446.657 331 448 332.343 448 334V336.003Z" fill="#A9AA7C"/>
<path fill-rule="evenodd" clip-rule="evenodd" d="M434.5 324C436.985 324 439 323.105 439 322H430C430 323.105 432.015 324 434.5 324Z" fill="#FEFEFE"/>
<path d="M458 320.5C479.833 324.833 524.6 325 529 291C534.5 248.5 465 255.5 505.5 286C537.9 310.4 589 301.833 610.5 294.5" stroke="#BCBCBC"/>
<circle cx="472.5" cy="469.5" r="22.5" fill="#FFF7AD"/>
<circle cx="472" cy="469" r="8" fill="#D9D9D9"/>
<path d="M478.714 460.307C481.043 462.64 479.684 464.844 478.714 465.654C478.298 464.52 476.302 462.057 471.644 461.28C466.987 460.502 464.436 467.436 463.743 471L460 467.598L461.248 464.196L461.577 460.727C461.626 460.213 462.059 459.794 462.552 459.641C463.72 459.278 465.734 458.366 468.733 456.905C473.724 454.475 475.803 457.391 478.714 460.307Z" fill="#262626"/>
<rect x="470" y="474" width="5" height="9" fill="#D9D9D9"/>
<path fill-rule="evenodd" clip-rule="evenodd" d="M486 486.003C486 486.947 485.563 487.846 484.773 488.361C481.243 490.663 477.028 492 472.5 492C467.972 492 463.757 490.663 460.227 488.361C459.437 487.846 459 486.947 459 486.003V484C459 482.343 460.343 481 462 481H483C484.657 481 486 482.343 486 484V486.003Z" fill="#A9AA7C"/>
<path fill-rule="evenodd" clip-rule="evenodd" d="M472.5 474C474.985 474 477 473.105 477 472H468C468 473.105 470.015 474 472.5 474Z" fill="#FEFEFE"/>
<circle cx="631.5" cy="277.5" r="22.5" fill="#FFF7AD"/>
<circle cx="631" cy="277" r="8" fill="#D9D9D9"/>
<path d="M637.714 268.307C640.043 270.64 638.684 272.844 637.714 273.654C637.298 272.52 635.302 270.057 630.644 269.28C625.987 268.502 623.436 275.436 622.743 279L619 275.598L620.248 272.196L620.577 268.727C620.626 268.213 621.059 267.794 621.552 267.641C622.72 267.278 624.734 266.366 627.733 264.905C632.724 262.475 634.803 265.391 637.714 268.307Z" fill="#262626"/>
<rect x="629" y="282" width="5" height="9" fill="#D9D9D9"/>
<path fill-rule="evenodd" clip-rule="evenodd" d="M645 294.003C645 294.947 644.563 295.846 643.773 296.361C640.243 298.663 636.028 300 631.5 300C626.972 300 622.757 298.663 619.227 296.361C618.437 295.846 618 294.947 618 294.003V292C618 290.343 619.343 289 621 289H642C643.657 289 645 290.343 645 292V294.003Z" fill="#A9AA7C"/>
<path fill-rule="evenodd" clip-rule="evenodd" d="M631.5 282C633.985 282 636 281.105 636 280H627C627 281.105 629.015 282 631.5 282Z" fill="#FEFEFE"/>
<circle cx="769.5" cy="258.5" r="22.5" fill="#FFF7AD"/>
<circle cx="769" cy="258" r="8" fill="#D9D9D9"/>
<path d="M775.714 249.307C778.043 251.64 776.684 253.844 775.714 254.654C775.298 253.52 773.302 251.057 768.644 250.28C763.987 249.502 761.436 256.436 760.743 260L757 256.598L758.248 253.196L758.577 249.727C758.626 249.213 759.059 248.794 759.552 248.641C760.72 248.278 762.734 247.366 765.733 245.905C770.724 243.475 772.803 246.391 775.714 249.307Z" fill="#262626"/>
<rect x="767" y="263" width="5" height="9" fill="#D9D9D9"/>
<path fill-rule="evenodd" clip-rule="evenodd" d="M783 275.003C783 275.947 782.563 276.846 781.773 277.361C778.243 279.663 774.028 281 769.5 281C764.972 281 760.757 279.663 757.227 277.361C756.437 276.846 756 275.947 756 275.003V273C756 271.343 757.343 270 759 270H780C781.657 270 783 271.343 783 273V275.003Z" fill="#A9AA7C"/>
<path fill-rule="evenodd" clip-rule="evenodd" d="M769.5 263C771.985 263 774 262.105 774 261H765C765 262.105 767.015 263 769.5 263Z" fill="#FEFEFE"/>
<circle cx="694.5" cy="394.5" r="22.5" fill="#FFF7AD"/>
<circle cx="694" cy="394" r="8" fill="#D9D9D9"/>
<path d="M700.714 385.307C703.043 387.64 701.684 389.844 700.714 390.654C700.298 389.52 698.302 387.057 693.644 386.28C688.987 385.502 686.436 392.436 685.743 396L682 392.598L683.248 389.196L683.577 385.727C683.626 385.213 684.059 384.794 684.552 384.641C685.72 384.278 687.734 383.366 690.733 381.905C695.724 379.475 697.803 382.391 700.714 385.307Z" fill="#262626"/>
<rect x="692" y="399" width="5" height="9" fill="#D9D9D9"/>
<path fill-rule="evenodd" clip-rule="evenodd" d="M708 411.003C708 411.947 707.563 412.846 706.773 413.361C703.243 415.663 699.028 417 694.5 417C689.972 417 685.757 415.663 682.227 413.361C681.437 412.846 681 411.947 681 411.003V409C681 407.343 682.343 406 684 406H705C706.657 406 708 407.343 708 409V411.003Z" fill="#A9AA7C"/>
<path fill-rule="evenodd" clip-rule="evenodd" d="M694.5 399C696.985 399 699 398.105 699 397H690C690 398.105 692.015 399 694.5 399Z" fill="#FEFEFE"/>
<path d="M685 367.5C679.4 329.1 662.667 296.5 655 285" stroke="#BCBCBC"/>
<circle cx="618.5" cy="469.5" r="22.5" fill="#FFF7AD"/>
<circle cx="618" cy="469" r="8" fill="#D9D9D9"/>
<path d="M624.714 460.307C627.043 462.64 625.684 464.844 624.714 465.654C624.298 464.52 622.302 462.057 617.644 461.28C612.987 460.502 610.436 467.436 609.743 471L606 467.598L607.248 464.196L607.577 460.727C607.626 460.213 608.059 459.794 608.552 459.641C609.72 459.278 611.734 458.366 614.733 456.905C619.724 454.475 621.803 457.391 624.714 460.307Z" fill="#262626"/>
<rect x="616" y="474" width="5" height="9" fill="#D9D9D9"/>
<path fill-rule="evenodd" clip-rule="evenodd" d="M632 486.003C632 486.947 631.563 487.846 630.773 488.361C627.243 490.663 623.028 492 618.5 492C613.972 492 609.757 490.663 606.227 488.361C605.437 487.846 605 486.947 605 486.003V484C605 482.343 606.343 481 608 481H629C630.657 481 632 482.343 632 484V486.003Z" fill="#A9AA7C"/>
<path fill-rule="evenodd" clip-rule="evenodd" d="M618.5 474C620.985 474 623 473.105 623 472H614C614 473.105 616.015 474 618.5 474Z" fill="#FEFEFE"/>
<circle cx="624.5" cy="22.5" r="22.5" fill="#FFF7AD"/>
<circle cx="624" cy="22" r="8" fill="#D9D9D9"/>
<path d="M630.714 13.3074C633.043 15.6404 631.684 17.8437 630.714 18.6537C630.298 17.5197 628.302 15.0571 623.644 14.2795C618.987 13.5019 616.436 20.4358 615.743 24L612 20.5978L613.248 17.1957L613.577 13.7268C613.626 13.2135 614.059 12.7941 614.552 12.641C615.72 12.2777 617.734 11.3658 620.733 9.90526C625.724 7.47514 627.803 10.3913 630.714 13.3074Z" fill="#262626"/>
<rect x="622" y="27" width="5" height="9" fill="#D9D9D9"/>
<path fill-rule="evenodd" clip-rule="evenodd" d="M638 39.003C638 39.9465 637.563 40.8459 636.773 41.3613C633.243 43.6626 629.028 45 624.5 45C619.972 45 615.757 43.6626 612.227 41.3613C611.437 40.8459 611 39.9465 611 39.003V37C611 35.3431 612.343 34 614 34H635C636.657 34 638 35.3431 638 37V39.003Z" fill="#A9AA7C"/>
<path fill-rule="evenodd" clip-rule="evenodd" d="M624.5 27C626.985 27 629 26.1046 629 25H620C620 26.1046 622.015 27 624.5 27Z" fill="#FEFEFE"/>
<circle cx="555.5" cy="191.5" r="22.5" fill="#FFF7AD"/>
<circle cx="555" cy="191" r="8" fill="#D9D9D9"/>
<path d="M561.714 182.307C564.043 184.64 562.684 186.844 561.714 187.654C561.298 186.52 559.302 184.057 554.644 183.28C549.987 182.502 547.436 189.436 546.743 193L543 189.598L544.248 186.196L544.577 182.727C544.626 182.213 545.059 181.794 545.552 181.641C546.72 181.278 548.734 180.366 551.733 178.905C556.724 176.475 558.803 179.391 561.714 182.307Z" fill="#262626"/>
<rect x="553" y="196" width="5" height="9" fill="#D9D9D9"/>
<path fill-rule="evenodd" clip-rule="evenodd" d="M569 208.003C569 208.947 568.563 209.846 567.773 210.361C564.243 212.663 560.028 214 555.5 214C550.972 214 546.757 212.663 543.227 210.361C542.437 209.846 542 208.947 542 208.003V206C542 204.343 543.343 203 545 203H566C567.657 203 569 204.343 569 206V208.003Z" fill="#A9AA7C"/>
<path fill-rule="evenodd" clip-rule="evenodd" d="M555.5 196C557.985 196 560 195.105 560 194H551C551 195.105 553.015 196 555.5 196Z" fill="#FEFEFE"/>
<path d="M440 148.16C484 145.66 449.5 124.16 458 112.16C464.8 102.56 479.167 101.493 485.5 102.16" stroke="#C6C6C6"/>
<path d="M440.5 57C480.5 33 503 27 507.5 36.5C512 46 479 41.5 482.5 54.5C485.3 64.9 493.333 65.5 497 64.5" stroke="#C6C6C6"/>
<path d="M609 41C605.208 76.8769 572.087 91.2821 556 94" stroke="#C6C6C6"/>
<path d="M546 168.5C554 141 540 140 523.5 135C510.3 131 505 121.333 504 117" stroke="#C6C6C6"/>
<path d="M651 164.5C646.675 223.15 602.002 205.841 613.5 193.5C624.998 181.159 633.229 197.917 619.5 213C608.516 225.067 593.266 195.951 578 200" stroke="#C6C6C6"/>
<path d="M531 188C470.5 212 465 220 436.5 205C413.7 193 410.333 185 411.5 182.5" stroke="#C6C6C6"/>
<path d="M449.5 340C467.9 371.6 503.5 385.167 519 388" stroke="#BCBCBC"/>
<path d="M500 464.5C558 471.5 528 454 521.5 429.5C516.3 409.9 524 407 528.5 408" stroke="#BCBCBC"/>
<path d="M619 438C626 398.5 627 413.5 602.5 419C582.9 423.4 572 419.5 569 417" stroke="#BCBCBC"/>
<path d="M741.5 255.5C701.1 231.9 687 201.667 685 189.5" stroke="#BCBCBC"/>
<path d="M568 222C599.2 252 615.333 256.167 619.5 254.5C628.167 241.5 651.9 219.4 677.5 235C709.5 254.5 698.5 271.5 711 274.5C721 276.9 736.833 268.833 743.5 264.5" stroke="#BCBCBC"/>
<circle cx="520.5" cy="88.5" r="32.5" fill="#FFCA41"/>
<ellipse cx="520" cy="80.5" rx="16" ry="18.5" fill="#D9D9D9"/>
<rect x="515" y="91" width="10" height="19" fill="#D9D9D9"/>
<path fill-rule="evenodd" clip-rule="evenodd" d="M543 111.952C537.161 117.556 529.232 121 520.5 121C511.258 121 502.918 117.143 497 110.95V110C497 107.239 499.239 105 502 105H538C540.761 105 543 107.239 543 110V111.952Z" fill="#323232"/>
<path d="M520.333 70.7883C525.88 71.9504 529.756 68.0445 531 65.9463C530.111 64.9778 526.733 62.8473 520.333 62.0726C513.933 61.2979 508.778 66.9147 507 69.8199L511.267 70.7883C511.978 70.3041 514.787 69.6262 520.333 70.7883Z" fill="#353535"/>
<ellipse cx="520" cy="91.5" rx="9" ry="4.5" fill="#151515"/>
<path d="M529 91L535.062 84.0716C535.373 83.716 535.94 83.9522 535.882 84.4211C534.859 92.6803 528.315 96.895 525 98C524 98.3333 520.5 98.8 514.5 98C509.22 97.296 505.876 89.8296 504.468 84.8674C504.327 84.3712 504.929 84.0621 505.269 84.4502L510.929 90.9183C510.976 90.9722 511.011 91.0367 511.033 91.1046C512.319 95 519.009 95 520 95C528 95 528.5 91.5 529 91Z" fill="#151515"/>
<circle cx="414.5" cy="58.5" r="22.5" fill="#FFF7AD"/>
<circle cx="414" cy="58" r="8" fill="#D9D9D9"/>
<path d="M420.714 49.3074C423.043 51.6404 421.684 53.8437 420.714 54.6537C420.298 53.5197 418.302 51.0571 413.644 50.2795C408.987 49.5019 406.436 56.4358 405.743 60L402 56.5978L403.248 53.1957L403.577 49.7268C403.626 49.2135 404.059 48.7941 404.552 48.641C405.72 48.2777 407.734 47.3658 410.733 45.9053C415.724 43.4751 417.803 46.3913 420.714 49.3074Z" fill="#262626"/>
<rect x="412" y="63" width="5" height="9" fill="#D9D9D9"/>
<path fill-rule="evenodd" clip-rule="evenodd" d="M428 75.003C428 75.9465 427.563 76.8459 426.773 77.3613C423.243 79.6626 419.028 81 414.5 81C409.972 81 405.757 79.6626 402.227 77.3613C401.437 76.8459 401 75.9465 401 75.003V73C401 71.3431 402.343 70 404 70H425C426.657 70 428 71.3431 428 73V75.003Z" fill="#A9AA7C"/>
<path fill-rule="evenodd" clip-rule="evenodd" d="M414.5 63C416.985 63 419 62.1046 419 61H410C410 62.1046 412.015 63 414.5 63Z" fill="#FEFEFE"/>
<rect x="442.5" y="186.5" width="57" height="36" rx="3.5" fill="#CACACA"/>
<line x1="495.65" y1="194.458" x2="469.55" y2="194.458" stroke="black" stroke-width="1.5"/>
<line x1="495.65" y1="200.275" x2="447.8" y2="200.275" stroke="#666666" stroke-width="0.8"/>
<line x1="495.65" y1="204.9" x2="452.15" y2="204.9" stroke="#666666" stroke-width="0.8"/>
<line x1="495.65" y1="209.525" x2="444.9" y2="209.525" stroke="#666666" stroke-width="0.8"/>
<path d="M495.65 214.906H449.25" stroke="#666666" stroke-width="0.8"/>
<g clip-path="url(#clip0_202_4055)">
<rect x="449.25" y="190.625" width="8.7" height="7.70833" rx="2" fill="white"/>
<path d="M452.986 195.259C452.986 195.057 453.004 194.883 453.042 194.739C453.084 194.59 453.154 194.449 453.25 194.315C453.351 194.182 453.487 194.043 453.658 193.899C453.866 193.723 454.026 193.577 454.138 193.459C454.255 193.342 454.338 193.227 454.386 193.115C454.434 193.003 454.458 192.867 454.458 192.707C454.458 192.451 454.375 192.254 454.21 192.115C454.044 191.977 453.804 191.907 453.49 191.907C453.228 191.907 452.996 191.942 452.794 192.011C452.591 192.075 452.396 192.153 452.21 192.243L451.962 191.683C452.175 191.571 452.41 191.478 452.666 191.403C452.927 191.329 453.218 191.291 453.538 191.291C454.044 191.291 454.436 191.417 454.714 191.667C454.991 191.918 455.13 192.259 455.13 192.691C455.13 192.931 455.09 193.137 455.01 193.307C454.935 193.473 454.826 193.627 454.682 193.771C454.543 193.91 454.378 194.059 454.186 194.219C454.01 194.369 453.874 194.499 453.778 194.611C453.687 194.723 453.626 194.835 453.594 194.947C453.562 195.054 453.546 195.185 453.546 195.339V195.475H452.986V195.259ZM452.802 196.651C452.802 196.454 452.847 196.315 452.938 196.235C453.034 196.155 453.154 196.115 453.298 196.115C453.431 196.115 453.546 196.155 453.642 196.235C453.738 196.315 453.786 196.454 453.786 196.651C453.786 196.843 453.738 196.982 453.642 197.067C453.546 197.153 453.431 197.195 453.298 197.195C453.154 197.195 453.034 197.153 452.938 197.067C452.847 196.982 452.802 196.843 452.802 196.651Z" fill="black"/>
</g>
<rect x="442.5" y="186.5" width="57" height="36" rx="3.5" stroke="black"/>
<rect x="654.5" y="227.5" width="57" height="36" rx="3.5" fill="#CACACA"/>
<line x1="707.65" y1="235.458" x2="681.55" y2="235.458" stroke="black" stroke-width="1.5"/>
<line x1="707.65" y1="241.275" x2="659.8" y2="241.275" stroke="#666666" stroke-width="0.8"/>
<line x1="707.65" y1="245.9" x2="664.15" y2="245.9" stroke="#666666" stroke-width="0.8"/>
<line x1="707.65" y1="250.525" x2="656.9" y2="250.525" stroke="#666666" stroke-width="0.8"/>
<path d="M707.65 255.906H661.25" stroke="#666666" stroke-width="0.8"/>
<g clip-path="url(#clip1_202_4055)">
<rect x="661.25" y="231.625" width="8.7" height="7.70833" rx="2" fill="white"/>
<path d="M664.986 236.259C664.986 236.057 665.004 235.883 665.042 235.739C665.084 235.59 665.154 235.449 665.25 235.315C665.351 235.182 665.487 235.043 665.658 234.899C665.866 234.723 666.026 234.577 666.138 234.459C666.255 234.342 666.338 234.227 666.386 234.115C666.434 234.003 666.458 233.867 666.458 233.707C666.458 233.451 666.375 233.254 666.21 233.115C666.044 232.977 665.804 232.907 665.49 232.907C665.228 232.907 664.996 232.942 664.794 233.011C664.591 233.075 664.396 233.153 664.21 233.243L663.962 232.683C664.175 232.571 664.41 232.478 664.666 232.403C664.927 232.329 665.218 232.291 665.538 232.291C666.044 232.291 666.436 232.417 666.714 232.667C666.991 232.918 667.13 233.259 667.13 233.691C667.13 233.931 667.09 234.137 667.01 234.307C666.935 234.473 666.826 234.627 666.682 234.771C666.543 234.91 666.378 235.059 666.186 235.219C666.01 235.369 665.874 235.499 665.778 235.611C665.687 235.723 665.626 235.835 665.594 235.947C665.562 236.054 665.546 236.185 665.546 236.339V236.475H664.986V236.259ZM664.802 237.651C664.802 237.454 664.847 237.315 664.938 237.235C665.034 237.155 665.154 237.115 665.298 237.115C665.431 237.115 665.546 237.155 665.642 237.235C665.738 237.315 665.786 237.454 665.786 237.651C665.786 237.843 665.738 237.982 665.642 238.067C665.546 238.153 665.431 238.195 665.298 238.195C665.154 238.195 665.034 238.153 664.938 238.067C664.847 237.982 664.802 237.843 664.802 237.651Z" fill="black"/>
</g>
<rect x="654.5" y="227.5" width="57" height="36" rx="3.5" stroke="black"/>
<rect x="536.5" y="281.5" width="57" height="36" rx="3.5" fill="#CACACA"/>
<line x1="589.65" y1="289.458" x2="563.55" y2="289.458" stroke="black" stroke-width="1.5"/>
<line x1="589.65" y1="295.275" x2="541.8" y2="295.275" stroke="#666666" stroke-width="0.8"/>
<line x1="589.65" y1="299.9" x2="546.15" y2="299.9" stroke="#666666" stroke-width="0.8"/>
<line x1="589.65" y1="304.525" x2="538.9" y2="304.525" stroke="#666666" stroke-width="0.8"/>
<path d="M589.65 309.906H543.25" stroke="#666666" stroke-width="0.8"/>
<g clip-path="url(#clip2_202_4055)">
<rect x="543.25" y="285.625" width="8.7" height="7.70833" rx="2" fill="white"/>
<path d="M546.986 290.259C546.986 290.057 547.004 289.883 547.042 289.739C547.084 289.59 547.154 289.449 547.25 289.315C547.351 289.182 547.487 289.043 547.658 288.899C547.866 288.723 548.026 288.577 548.138 288.459C548.255 288.342 548.338 288.227 548.386 288.115C548.434 288.003 548.458 287.867 548.458 287.707C548.458 287.451 548.375 287.254 548.21 287.115C548.044 286.977 547.804 286.907 547.49 286.907C547.228 286.907 546.996 286.942 546.794 287.011C546.591 287.075 546.396 287.153 546.21 287.243L545.962 286.683C546.175 286.571 546.41 286.478 546.666 286.403C546.927 286.329 547.218 286.291 547.538 286.291C548.044 286.291 548.436 286.417 548.714 286.667C548.991 286.918 549.13 287.259 549.13 287.691C549.13 287.931 549.09 288.137 549.01 288.307C548.935 288.473 548.826 288.627 548.682 288.771C548.543 288.91 548.378 289.059 548.186 289.219C548.01 289.369 547.874 289.499 547.778 289.611C547.687 289.723 547.626 289.835 547.594 289.947C547.562 290.054 547.546 290.185 547.546 290.339V290.475H546.986V290.259ZM546.802 291.651C546.802 291.454 546.847 291.315 546.938 291.235C547.034 291.155 547.154 291.115 547.298 291.115C547.431 291.115 547.546 291.155 547.642 291.235C547.738 291.315 547.786 291.454 547.786 291.651C547.786 291.843 547.738 291.982 547.642 292.067C547.546 292.153 547.431 292.195 547.298 292.195C547.154 292.195 547.034 292.153 546.938 292.067C546.847 291.982 546.802 291.843 546.802 291.651Z" fill="black"/>
</g>
<rect x="536.5" y="281.5" width="57" height="36" rx="3.5" stroke="black"/>
<rect x="575" y="300" width="15" height="15" rx="7.5" fill="#50FF61"/>
<path d="M579 308L581.449 311.265C581.686 311.582 582.181 311.509 582.318 311.138L585.5 302.5" stroke="black"/>
<rect x="571.5" y="65.5" width="57" height="36" rx="3.5" fill="#CACACA"/>
<line x1="624.65" y1="73.4583" x2="598.55" y2="73.4583" stroke="black" stroke-width="1.5"/>
<line x1="624.65" y1="79.275" x2="576.8" y2="79.275" stroke="#666666" stroke-width="0.8"/>
<line x1="624.65" y1="83.9" x2="581.15" y2="83.9" stroke="#666666" stroke-width="0.8"/>
<line x1="624.65" y1="88.525" x2="573.9" y2="88.525" stroke="#666666" stroke-width="0.8"/>
<path d="M624.65 93.9062H578.25" stroke="#666666" stroke-width="0.8"/>
<g clip-path="url(#clip3_202_4055)">
<rect x="578.25" y="69.625" width="8.7" height="7.70833" rx="2" fill="white"/>
<path d="M581.986 74.2593C581.986 74.0567 582.004 73.8833 582.042 73.7393C582.084 73.59 582.154 73.4487 582.25 73.3153C582.351 73.182 582.487 73.0433 582.658 72.8993C582.866 72.7233 583.026 72.5767 583.138 72.4593C583.255 72.342 583.338 72.2273 583.386 72.1153C583.434 72.0033 583.458 71.8673 583.458 71.7073C583.458 71.4513 583.375 71.254 583.21 71.1153C583.044 70.9767 582.804 70.9073 582.49 70.9073C582.228 70.9073 581.996 70.942 581.794 71.0113C581.591 71.0753 581.396 71.1527 581.21 71.2433L580.962 70.6833C581.175 70.5713 581.41 70.478 581.666 70.4033C581.927 70.3287 582.218 70.2913 582.538 70.2913C583.044 70.2913 583.436 70.4167 583.714 70.6673C583.991 70.918 584.13 71.2593 584.13 71.6913C584.13 71.9313 584.09 72.1367 584.01 72.3073C583.935 72.4727 583.826 72.6273 583.682 72.7713C583.543 72.91 583.378 73.0593 583.186 73.2193C583.01 73.3687 582.874 73.4993 582.778 73.6113C582.687 73.7233 582.626 73.8353 582.594 73.9473C582.562 74.054 582.546 74.1847 582.546 74.3393V74.4753H581.986V74.2593ZM581.802 75.6513C581.802 75.454 581.847 75.3153 581.938 75.2353C582.034 75.1553 582.154 75.1153 582.298 75.1153C582.431 75.1153 582.546 75.1553 582.642 75.2353C582.738 75.3153 582.786 75.454 582.786 75.6513C582.786 75.8433 582.738 75.982 582.642 76.0673C582.546 76.1527 582.431 76.1953 582.298 76.1953C582.154 76.1953 582.034 76.1527 581.938 76.0673C581.847 75.982 581.802 75.8433 581.802 75.6513Z" fill="black"/>
</g>
<rect x="571.5" y="65.5" width="57" height="36" rx="3.5" stroke="black"/>
<rect x="610" y="84" width="15" height="15" rx="7.5" fill="#50FF61"/>
<path d="M614 92L616.449 95.2647C616.686 95.5817 617.181 95.5094 617.318 95.1376L620.5 86.5" stroke="black"/>
<rect x="448.5" y="373.5" width="57" height="36" rx="3.5" fill="#CACACA"/>
<line x1="501.65" y1="381.458" x2="475.55" y2="381.458" stroke="black" stroke-width="1.5"/>
<line x1="501.65" y1="387.275" x2="453.8" y2="387.275" stroke="#666666" stroke-width="0.8"/>
<line x1="501.65" y1="391.9" x2="458.15" y2="391.9" stroke="#666666" stroke-width="0.8"/>
<line x1="501.65" y1="396.525" x2="450.9" y2="396.525" stroke="#666666" stroke-width="0.8"/>
<path d="M501.65 401.906H455.25" stroke="#666666" stroke-width="0.8"/>
<g clip-path="url(#clip4_202_4055)">
<rect x="455.25" y="377.625" width="8.7" height="7.70833" rx="2" fill="white"/>
<path d="M458.986 382.259C458.986 382.057 459.004 381.883 459.042 381.739C459.084 381.59 459.154 381.449 459.25 381.315C459.351 381.182 459.487 381.043 459.658 380.899C459.866 380.723 460.026 380.577 460.138 380.459C460.255 380.342 460.338 380.227 460.386 380.115C460.434 380.003 460.458 379.867 460.458 379.707C460.458 379.451 460.375 379.254 460.21 379.115C460.044 378.977 459.804 378.907 459.49 378.907C459.228 378.907 458.996 378.942 458.794 379.011C458.591 379.075 458.396 379.153 458.21 379.243L457.962 378.683C458.175 378.571 458.41 378.478 458.666 378.403C458.927 378.329 459.218 378.291 459.538 378.291C460.044 378.291 460.436 378.417 460.714 378.667C460.991 378.918 461.13 379.259 461.13 379.691C461.13 379.931 461.09 380.137 461.01 380.307C460.935 380.473 460.826 380.627 460.682 380.771C460.543 380.91 460.378 381.059 460.186 381.219C460.01 381.369 459.874 381.499 459.778 381.611C459.687 381.723 459.626 381.835 459.594 381.947C459.562 382.054 459.546 382.185 459.546 382.339V382.475H458.986V382.259ZM458.802 383.651C458.802 383.454 458.847 383.315 458.938 383.235C459.034 383.155 459.154 383.115 459.298 383.115C459.431 383.115 459.546 383.155 459.642 383.235C459.738 383.315 459.786 383.454 459.786 383.651C459.786 383.843 459.738 383.982 459.642 384.067C459.546 384.153 459.431 384.195 459.298 384.195C459.154 384.195 459.034 384.153 458.938 384.067C458.847 383.982 458.802 383.843 458.802 383.651Z" fill="black"/>
</g>
<rect x="448.5" y="373.5" width="57" height="36" rx="3.5" stroke="black"/>
<rect x="631.5" y="326.5" width="57" height="36" rx="3.5" fill="#CACACA"/>
<line x1="684.65" y1="334.458" x2="658.55" y2="334.458" stroke="black" stroke-width="1.5"/>
<line x1="684.65" y1="340.275" x2="636.8" y2="340.275" stroke="#666666" stroke-width="0.8"/>
<line x1="684.65" y1="344.9" x2="641.15" y2="344.9" stroke="#666666" stroke-width="0.8"/>
<line x1="684.65" y1="349.525" x2="633.9" y2="349.525" stroke="#666666" stroke-width="0.8"/>
<path d="M684.65 354.906H638.25" stroke="#666666" stroke-width="0.8"/>
<g clip-path="url(#clip5_202_4055)">
<rect x="638.25" y="330.625" width="8.7" height="7.70833" rx="2" fill="white"/>
<path d="M641.986 335.259C641.986 335.057 642.004 334.883 642.042 334.739C642.084 334.59 642.154 334.449 642.25 334.315C642.351 334.182 642.487 334.043 642.658 333.899C642.866 333.723 643.026 333.577 643.138 333.459C643.255 333.342 643.338 333.227 643.386 333.115C643.434 333.003 643.458 332.867 643.458 332.707C643.458 332.451 643.375 332.254 643.21 332.115C643.044 331.977 642.804 331.907 642.49 331.907C642.228 331.907 641.996 331.942 641.794 332.011C641.591 332.075 641.396 332.153 641.21 332.243L640.962 331.683C641.175 331.571 641.41 331.478 641.666 331.403C641.927 331.329 642.218 331.291 642.538 331.291C643.044 331.291 643.436 331.417 643.714 331.667C643.991 331.918 644.13 332.259 644.13 332.691C644.13 332.931 644.09 333.137 644.01 333.307C643.935 333.473 643.826 333.627 643.682 333.771C643.543 333.91 643.378 334.059 643.186 334.219C643.01 334.369 642.874 334.499 642.778 334.611C642.687 334.723 642.626 334.835 642.594 334.947C642.562 335.054 642.546 335.185 642.546 335.339V335.475H641.986V335.259ZM641.802 336.651C641.802 336.454 641.847 336.315 641.938 336.235C642.034 336.155 642.154 336.115 642.298 336.115C642.431 336.115 642.546 336.155 642.642 336.235C642.738 336.315 642.786 336.454 642.786 336.651C642.786 336.843 642.738 336.982 642.642 337.067C642.546 337.153 642.431 337.195 642.298 337.195C642.154 337.195 642.034 337.153 641.938 337.067C641.847 336.982 641.802 336.843 641.802 336.651Z" fill="black"/>
</g>
<rect x="631.5" y="326.5" width="57" height="36" rx="3.5" stroke="black"/>
<rect x="670" y="345" width="15" height="15" rx="7.5" fill="#50FF61"/>
<path d="M674 353L676.449 356.265C676.686 356.582 677.181 356.509 677.318 356.138L680.5 347.5" stroke="black"/>
<path d="M350.5 180L350.77 180.421L350.5 180ZM365.5 195L365.847 195.36L365.5 195ZM392.999 195.03C393.016 194.755 392.806 194.518 392.53 194.501L388.039 194.228C387.763 194.211 387.526 194.421 387.509 194.696C387.492 194.972 387.702 195.209 387.978 195.226L391.971 195.469L391.728 199.461C391.711 199.737 391.921 199.974 392.196 199.991C392.472 200.008 392.709 199.798 392.726 199.522L392.999 195.03ZM330.984 194.876C330.3 192.202 329.909 190.106 329.766 188.467C329.622 186.823 329.732 185.677 330.018 184.88C330.295 184.105 330.741 183.648 331.331 183.366C331.946 183.072 332.75 182.953 333.758 182.937C334.764 182.922 335.909 183.01 337.197 183.092C338.475 183.173 339.874 183.247 341.346 183.195C344.295 183.091 347.547 182.484 350.77 180.421L350.23 179.579C347.203 181.516 344.143 182.096 341.311 182.196C339.891 182.245 338.533 182.175 337.26 182.094C335.998 182.014 334.799 181.922 333.742 181.938C332.688 181.954 331.71 182.076 330.9 182.464C330.064 182.863 329.44 183.528 329.076 184.542C328.721 185.534 328.62 186.845 328.769 188.554C328.919 190.269 329.325 192.423 330.016 195.124L330.984 194.876ZM350.77 180.421C353.598 178.611 355.565 177.838 356.895 177.746C357.547 177.702 358.018 177.822 358.367 178.038C358.715 178.254 358.988 178.596 359.189 179.077C359.601 180.064 359.67 181.542 359.515 183.333C359.361 185.106 358.996 187.105 358.604 189.093C358.214 191.069 357.794 193.041 357.544 194.719C357.419 195.56 357.334 196.341 357.318 197.023C357.301 197.699 357.35 198.317 357.518 198.811C357.689 199.317 358.008 199.753 358.554 199.924C359.068 200.084 359.662 199.969 360.298 199.689C361.575 199.126 363.368 197.744 365.847 195.36L365.153 194.64C362.676 197.021 360.994 198.289 359.895 198.773C359.344 199.016 359.025 199.023 358.853 198.969C358.713 198.925 358.573 198.809 358.465 198.49C358.353 198.16 358.302 197.68 358.317 197.048C358.333 196.423 358.411 195.688 358.533 194.866C358.779 193.22 359.19 191.287 359.585 189.287C359.978 187.299 360.352 185.252 360.511 183.419C360.668 181.604 360.623 179.917 360.112 178.691C359.851 178.066 359.459 177.539 358.894 177.188C358.328 176.837 357.636 176.693 356.826 176.749C355.233 176.859 353.087 177.75 350.23 179.579L350.77 180.421ZM365.847 195.36C370.714 190.68 374.456 187.463 377.318 185.376C380.199 183.274 382.126 182.366 383.375 182.207C383.982 182.13 384.388 182.235 384.67 182.424C384.957 182.616 385.185 182.94 385.346 183.424C385.676 184.418 385.669 185.905 385.502 187.64C385.336 189.368 385.029 191.215 384.809 192.96C384.594 194.661 384.459 196.285 384.698 197.423C384.818 197.996 385.05 198.533 385.5 198.871C385.967 199.222 386.561 199.277 387.22 199.116C387.871 198.957 388.641 198.576 389.551 197.971C390.467 197.362 391.551 196.508 392.831 195.374L392.169 194.626C390.908 195.742 389.861 196.564 388.998 197.138C388.128 197.716 387.47 198.025 386.983 198.144C386.504 198.261 386.25 198.183 386.1 198.071C385.932 197.944 385.775 197.688 385.677 197.218C385.478 196.27 385.583 194.811 385.801 193.085C386.013 191.402 386.33 189.476 386.498 187.735C386.664 186.002 386.699 184.324 386.295 183.109C386.089 182.489 385.755 181.947 385.226 181.593C384.693 181.237 384.028 181.116 383.25 181.215C381.728 181.408 379.623 182.457 376.729 184.568C373.815 186.693 370.036 189.945 365.153 194.64L365.847 195.36Z" fill="black"/>
<defs>
<linearGradient id="paint0_linear_202_4055" x1="138.524" y1="274.405" x2="196.035" y2="394.98" gradientUnits="userSpaceOnUse">
<stop stop-color="#CACACA"/>
<stop offset="1" stop-color="#5E5D5D"/>
</linearGradient>
<linearGradient id="paint1_linear_202_4055" x1="51.9758" y1="178.613" x2="116.806" y2="238.019" gradientUnits="userSpaceOnUse">
<stop stop-color="#6B6B6B"/>
<stop offset="1" stop-color="#AAAAAA"/>
</linearGradient>
<clipPath id="clip0_202_4055">
<rect x="449.25" y="190.625" width="8.7" height="7.70833" rx="2" fill="white"/>
</clipPath>
<clipPath id="clip1_202_4055">
<rect x="661.25" y="231.625" width="8.7" height="7.70833" rx="2" fill="white"/>
</clipPath>
<clipPath id="clip2_202_4055">
<rect x="543.25" y="285.625" width="8.7" height="7.70833" rx="2" fill="white"/>
</clipPath>
<clipPath id="clip3_202_4055">
<rect x="578.25" y="69.625" width="8.7" height="7.70833" rx="2" fill="white"/>
</clipPath>
<clipPath id="clip4_202_4055">
<rect x="455.25" y="377.625" width="8.7" height="7.70833" rx="2" fill="white"/>
</clipPath>
<clipPath id="clip5_202_4055">
<rect x="638.25" y="330.625" width="8.7" height="7.70833" rx="2" fill="white"/>
</clipPath>
</defs>
</svg>
