<svg id="Layer_2_something" data-name="Layer 1 something" xmlns="http://www.w3.org/2000/svg" viewBox="0 0 371.15 376.97"><defs><style>.illustration-cls-1{fill:#e3e9fc;}.illustration-cls-2{fill:#fe8780;}.illustration-cls-3{fill:#e6ecfc;}.illustration-cls-4{fill:#91b2f9;}.illustration-cls-5{fill:#e65851;}.illustration-cls-6{fill:#180d86;}.illustration-cls-7{fill:#dfe7fc;}.illustration-cls-8{fill:#0f066f;}.illustration-cls-9{fill:#fcaaa9;}.illustration-cls-10{fill:#c3d6fb;}.illustration-cls-11{fill:#fd8077;}.illustration-cls-12{fill:#14097c;}.illustration-cls-13{fill:#4f52fd;}.illustration-cls-14{fill:#fe928e;}.illustration-cls-15{fill:#fdcbc8;}</style></defs><title>illustration</title><path class="illustration-cls-1" d="M421.2,183.35a229.44,229.44,0,0,1,7.4,25.29c1.4,6.29,2.65,12.6,3.51,19,.78,5.77,1.3,11.54,1.76,17.34a208.37,208.37,0,0,1,.46,22.76c-.15,5.07-.57,10.15-1,15.23a218,218,0,0,1-6.24,35.15,186.34,186.34,0,0,1-9.87,28.33,159.39,159.39,0,0,1-11.34,21.22,7,7,0,0,0-.48,1.2c-3.08.55-6.12-.05-9.13-.5-6.45-1-12.7-2.83-19.07-4.19-8.53-1.83-17.09-2.74-25.75-1a34.81,34.81,0,0,0-17.76,8.93c-5.31,5.15-8.4,11.54-10.23,18.58a72.14,72.14,0,0,0-2.14,21.22c.16,3.8.4,7.57.89,11.34a5.17,5.17,0,0,0,2.11,3.8c-.09.74-.78.66-1.23.82a185,185,0,0,1-20.62,5.77A199.21,199.21,0,0,1,282.1,437c-4.58.51-9.15.95-13.76,1.18-5.83.29-11.66.68-17.5.51s-11.75-.37-17.6-.9a274.88,274.88,0,0,1-36.38-6c-8.63-2-17.18-4.16-25.57-6.95A157.51,157.51,0,0,1,155,418.54a2.22,2.22,0,0,0-1.12-.28c-.1-.37-.22-.74-.3-1.12-1.62-7.46-2.41-15-3.3-22.6,0-2-.36-3.93-.59-5.87-.37-3-.45-6.08-.71-9.11-.21-2.32-.41-4.68-.39-7,0-3.41-.37-6.82-.59-10.23-.06-1,.31-1.93,0-2.89.25-2.81-.25-5.58-.25-8.39,0-12.45-.61-24.91.31-37.35.22-1.37.38-2.76.69-4.11,1-4.58,2.13-9.14,3.19-13.7,4,.09,7.89.15,11.82.29a2.61,2.61,0,0,0,2.45-1.21,96.61,96.61,0,0,0,5.39-8.5c6-10.25,11.31-20.88,16.72-31.45,1.1-2.14.93-2.43-1.46-2.87a2.79,2.79,0,0,1-.55-.2c.52-.35,1-.72,1.57-1a52.85,52.85,0,0,0,11.26-9,62.35,62.35,0,0,0,12.29-19,103.11,103.11,0,0,0,3.85-11.86c.29-.59.21-1.34,1-1.67,3.52-1.51,4.75-4.72,5.87-8,.51-1.47-.65-2.68-.61-4.08a30.29,30.29,0,0,0,6-5.73c5.28-6.54,7.44-13.9,5.72-22.25-1.05-5.11-3.64-9.51-6.34-13.87-3.25-5.26-6.76-10.38-8.73-16.32s-2.52-11.62.25-17.34c2.5-5.17,6.81-8.45,11.85-10.83,8.42-4,17.37-5.24,26.59-5a17.67,17.67,0,0,1,2,.77,41.86,41.86,0,0,1,10.24,7.48c6,6,9.9,13.35,12.71,21.29A80.78,80.78,0,0,1,286.29,158a97.43,97.43,0,0,1-1.71,26.89c-3.1,13.9-10.2,25.72-19,36.64-6.19,7.65-12.8,15-18.73,22.83-6.2,8.22-11.48,16.94-14.77,26.77-4,11.86-5.4,24.11-5.51,36.53-.05,5.8.34,11.6.47,17.39.17,6.93.27,13.85.4,20.78,0,.44,0,.88,0,1.32.22,3,.22,3,3.16,4,1.54.47,3,1,4.61,1.39,3.78.91,7.48,2.39,11.4,2.48,9.51.2,19,.23,28.54.33,2.58,0,3.32-.67,3.37-3.24.08-4.29.26-8.58.61-12.86a162.66,162.66,0,0,1,7-36.23c6.32-19.82,16.57-37.24,31.47-51.86,6.78-6.64,14.34-12.35,21.69-18.3a97.07,97.07,0,0,0,26.53-33.42,62.23,62.23,0,0,0,4.64-12c.72-.09,1.44-.24,2.16-.27,5.54-.22,11.08-.34,16.62-.68,2.18-.14,4.37-.15,6.55-.27,6.79-.36,13.58-.8,20.37-1.08A7.53,7.53,0,0,0,421.2,183.35ZM246.13,435.46c.77.13,1.53.27,2.31.36a142,142,0,0,0,18.56.6c10.62-.11,18.35-5.16,23.6-14.21a40.58,40.58,0,0,0,4.9-15.65c1-8.08-.38-15.59-5.49-22.09-7.74-9.85-18.05-14.87-30.45-15.82-.85-.13-1.72-.23-2.57-.4a35.6,35.6,0,0,0-12.05-.39,34,34,0,0,0-10.73,63.83C238,433.67,242.05,434.53,246.13,435.46ZM420.66,256.58a72.5,72.5,0,0,0-1.5-16.29,118.64,118.64,0,0,0-10.41-30.59,3.48,3.48,0,0,0-3.77-2.11,3.54,3.54,0,0,0-3.1,3.5,51.72,51.72,0,0,1-4.32,15.83c-3.3,7.18-8.18,13.25-13.54,18.93-4.85,5.14-10,10-15.23,14.76q-10.68,9.64-21.21,19.46c-5.75,5.35-11.46,10.73-17.07,16.21A201,201,0,0,0,315.58,312a89.35,89.35,0,0,0-16.13,28.43,78.69,78.69,0,0,0-3.92,31.92,99.74,99.74,0,0,0,2.33,14.8,107.84,107.84,0,0,0,11.19,28.15,78.45,78.45,0,0,0,6.24,9.7c.84,1.06,1.9,1.57,3.2.85a2.47,2.47,0,0,0,1.12-3.13,59.86,59.86,0,0,1-1.21-20.54,71,71,0,0,1,7.33-24.76,99,99,0,0,1,17.15-24.08,136.27,136.27,0,0,1,11.86-11.05,167.38,167.38,0,0,1,20.77-14.86c9.3-5.61,18.08-11.82,25.48-19.87a75.43,75.43,0,0,0,10.69-14.57A70.49,70.49,0,0,0,420.66,256.58Z" transform="translate(-63.3 -61.8)"/><path class="illustration-cls-2" d="M230.59,351.15c-2.94-1-2.94-1-3.16-4,0-.44,0-.88,0-1.32-.13-6.93-.23-13.85-.4-20.78-.13-5.79-.52-11.59-.47-17.39.11-12.42,1.54-24.67,5.51-36.53,3.29-9.83,8.57-18.55,14.77-26.77,5.93-7.86,12.54-15.18,18.73-22.83,8.84-10.92,15.94-22.74,19-36.64A97.43,97.43,0,0,0,286.29,158a80.78,80.78,0,0,0-4.44-22.56c-2.81-7.94-6.68-15.28-12.71-21.29a41.86,41.86,0,0,0-10.24-7.48,17.67,17.67,0,0,0-2-.77c-.11-.14-.2-.35-.35-.42a41.51,41.51,0,0,0-14.47-3.71,62.52,62.52,0,0,0-13,.46c-7.92,1.2-15.37,3.46-21.7,8.58a18.2,18.2,0,0,0-6.93,12.45c-.66,6,1,11.66,3.78,17,2.56,5,5.76,9.6,8.58,14.44,3.17,5.44,5.09,11.15,4.62,17.58a26.4,26.4,0,0,1-7.18,16.07A40.33,40.33,0,0,1,192,199.71a33.76,33.76,0,0,1-11.74,1.61c-2.06-.09-4.05-.52-6.08-.65a34.62,34.62,0,0,1-9-4.33c-5.59-3.92-9.68-9.15-13.13-14.92a46.18,46.18,0,0,1-4.4-8.88c1.68-.6,1.42-2.33,2-3.55a.91.91,0,0,0-.61-1.38,1.1,1.1,0,0,0-1.43.84c-.22.61-.09,1.53-1,1.72a62.89,62.89,0,0,1-3.85-33.62,45.56,45.56,0,0,0,3.46,3.89c.36.3.27.67.2,1.06-.5,3.31-.5,3.31,2.5,4.84a2,2,0,0,1,.25.14c1,.8,1.76.46,2.59-.4.66-.67,1.1-1.82,2.39-1.61,0,2.48,0,5,0,7.43a44.11,44.11,0,0,0,1,7.33c.08.42.08,1.22.67,1.11s.38-.9.3-1.36a24.73,24.73,0,0,1-.58-3.73c.53,0,1.07,0,1.6,0s1.59.28,1.58-.75-.91-.65-1.5-.68-1.27,0-1.9,0a57.4,57.4,0,0,1-.3-9.08,12.67,12.67,0,0,0,2,0,2.68,2.68,0,0,1,3.09,1.55c.75,1.52,1.73,1.83,3.39,1.16,2.77-1.12,2.83-1,2.89-3.92,0-1.1,3.92-4.71,5-4.63h.14c3.28.36,3.21.33,4.79-2.55.66-1.19.67-2-.45-2.84a3,3,0,0,1-1.32-3.62,5.54,5.54,0,0,0,.2-2.46,1.67,1.67,0,0,1,.83-1.8c2.44-1.84,2.42-1.86,1.49-4.82a3.5,3.5,0,0,1-.17-.55,1.41,1.41,0,0,0-1.8-1.36c-1.79.25-3.27-.19-4.13-2a2.25,2.25,0,0,0-.74-.9c-1.61-1-1.57-2.55-1.12-4.08a1.49,1.49,0,0,0-1-2.15,18,18,0,0,1,3.28-4.61l2.44,2c.41.33.9.59,1.25.08s0-.88-.45-1.2c-.83-.57-1.61-1.2-2.41-1.8a2,2,0,0,1,.61-1,86.44,86.44,0,0,1,8.61-8.93,78.61,78.61,0,0,1,9.77-7.4,84.31,84.31,0,0,1,21.19-9.68,99.1,99.1,0,0,1,24.82-4,113.56,113.56,0,0,1,16.49.49c4.35.46,8.69.92,13,1.71A201.72,201.72,0,0,1,289,80.92c.34.1.8.47,1-.1s-.35-.7-.77-.83c-.18-.06-.36-.14-.55-.19-11-3.18-22.07-5.84-33.5-6.86a115.46,115.46,0,0,0-33.82,1.17,84.54,84.54,0,0,0-30.77,12.12,81.3,81.3,0,0,0-18.45,16.46,40,40,0,0,0-4.82,6.58c-1.85-1.21-3.38-.84-4.65.91a1.06,1.06,0,0,1-.23.19c-.63.48-5.91.33-6.38-.28a9.85,9.85,0,0,1-1.88-2.73l4.39-6c.94.17,1.87.38,2.82.49.71.07,1.85.53,2-.45s-1.12-.77-1.83-.89-1.4.21-1.78-.61a94.07,94.07,0,0,1,13.88-14.12c3.23-2.73,6.77-5,10.18-7.52h0a.68.68,0,0,0,.59-.33,105.79,105.79,0,0,1,20.19-9.52A126.9,126.9,0,0,1,228.38,63a137,137,0,0,1,23.34-1.09,145.42,145.42,0,0,1,40.07,6.67c1,.31,1.94.56,2.92.84a1.16,1.16,0,0,0,.82.56,68.79,68.79,0,0,1,9.56,4,93.07,93.07,0,0,1,18.45,11.43,84,84,0,0,1,14.27,14.37,86.77,86.77,0,0,1,11,18.86,88,88,0,0,1,4.73,13.79c-1.65.09-3.3.23-5,.28-10.72.32-21.43.73-32.16.88a9.16,9.16,0,0,0-9.23,9.34c.2,11,0,22,.07,32.93a2.83,2.83,0,0,1-.81,2.22c-4.67,4.7-9.31,9.45-13.94,14.2-1.13,1.16-2.21,2.37-3.31,3.55,4.71-1,9.26-2.21,13.82-3.41,2.86-.76,5.7-1.88,8.61-2.15,5.57-.51,11.19-.53,16.79-.76q3.29-.15,6.57-.33c5.79-.31,11.57-.71,17.37-.8a7.15,7.15,0,0,1-.2.7,97,97,0,0,1-7.94,15.6A88.12,88.12,0,0,1,328.32,224c-6.78,6.14-14.13,11.6-21.08,17.53a119.58,119.58,0,0,0-16.9,17.73,123.84,123.84,0,0,0-14.11,23.15,131.14,131.14,0,0,0-5.92,14.92,151.85,151.85,0,0,0-6.13,26.5,216.19,216.19,0,0,0-2,24.23c-.07,2.28-.9,3.17-3.18,3.17-3.12,0-6.23-.12-9.35-.22-5.85-.18-11.71-.07-17.57-.06C231.61,350.91,231,350.71,230.59,351.15ZM163.42,177.31a1.62,1.62,0,0,0-.11-.35,47.24,47.24,0,0,1-4.62-9.21.46.46,0,0,0-.71-.27.58.58,0,0,0-.24.76c.26.63.52,1.26.81,1.87a45.41,45.41,0,0,0,3.75,7.06c.19.27.33.65.77.49C163.22,177.61,163.32,177.41,163.42,177.31Zm-14.26-14.65c-.06.74.08,1.48.89,1.59s1.07-.58,1.17-1.32.34-1.69.46-2.54a1.22,1.22,0,0,0-.93-1.56c-.82-.16-1.11.52-1.23,1.13C149.33,160.85,149.27,161.76,149.16,162.66Zm.58-9.27c0,.93-.16,2,1,2.07,1,0,1-1,1-1.76s0-1.9-1.2-1.89S149.82,152.8,149.74,153.39Zm12.2,1.6,2.59-.62c.5-.11.81-.41.64-.92s-.58-.53-1.08-.4a9.21,9.21,0,0,1-2.4.48c-.52,0-1,.32-1,.87S161.38,154.94,161.94,155Zm19.76-14.43a1.48,1.48,0,0,0,.43-.29,9.45,9.45,0,0,0,1.52-3.28c.12-.34-.18-.64-.57-.71a.71.71,0,0,0-.79.51c-.36.9-.73,1.8-1.09,2.71A.7.7,0,0,0,181.7,140.56Zm-15.47-38.88c-.39,0-.67.09-.82.38a.49.49,0,0,0,.31.7c1,.43,2.07.83,3.11,1.21a.55.55,0,0,0,.74-.28.65.65,0,0,0-.3-.87A13.75,13.75,0,0,0,166.23,101.68Zm14.44,41.13a.53.53,0,0,0-.3-.6.6.6,0,0,0-.8.12,30,30,0,0,0-1.93,2.69c-.22.37-.11.92.59.79A8.21,8.21,0,0,0,180.67,142.81Zm3.69-12.69a2,2,0,0,0-.36.17,6.59,6.59,0,0,0-.45,3.78c.38.52.81.38,1-.14a24.64,24.64,0,0,0,.62-3.1C185.19,130.41,184.86,130.13,184.36,130.12Zm-8,17.43c-.15-.55-.57-.58-1-.36a4.31,4.31,0,0,0-1.15.84c-.57.58-1.91,1.16-1.37,1.86.82,1.06,1.46-.46,2.17-.82A2.78,2.78,0,0,0,176.37,147.55Zm-8.44,5.67a10.57,10.57,0,0,0,3-1.46A.55.55,0,0,0,171,151a.54.54,0,0,0-.75-.22c-.95.48-1.91.95-2.85,1.45a.54.54,0,0,0-.24.75C167.25,153.21,167.52,153.2,167.93,153.22Zm10.77-42.95c0-.43-1.39-1.88-1.72-1.8s-.66.38-.53.74a2.93,2.93,0,0,0,1.67,1.71C178.46,111.07,178.67,110.65,178.7,110.27ZM184,126.44c.17.48-.25,1.34.57,1.42s.62-.72.62-1.21.21-1.36-.59-1.43S184.14,126,184,126.44Z" transform="translate(-63.3 -61.8)"/><path class="illustration-cls-3" d="M147.63,172.54a46.18,46.18,0,0,0,4.4,8.88c3.45,5.77,7.54,11,13.13,14.92a34.62,34.62,0,0,0,9,4.33,9.45,9.45,0,0,0,3,1.38,61,61,0,0,0,14.3,2.58c6.65.49,13.31.93,19.72-1.62.09,2.14.56,4.3-.34,6.4a36.54,36.54,0,0,1-3.56,6.49c-5.07,6.65-11.86,11-19.26,14.6-3.33,1.61-6.83,2.78-10.28,4.12-.61.13-1.24.23-1.84.4a63.39,63.39,0,0,1-15.81,2.63l-11.55.24c.19-1.53.37-3.06.57-4.59.26-2.1.54-4.19.82-6.29.87,0,1.75,0,2.63,0,3.27-.19,5.36-2.5,5-5.56a28,28,0,0,0-1-4.41,106.17,106.17,0,0,0-4.13-10.29,6.62,6.62,0,0,0,1.29-9.19c-1.33-2.06-3.11-2.39-5-.9A9.29,9.29,0,0,0,147.4,198c-.33.38-.59.79-1.18.63a6.3,6.3,0,0,0-1.73-1.76c-3-2.14-7.63-.44-8.3,3.2-.26,1.39-.71,1.81-2,1.5a2.88,2.88,0,0,0-.88,0c-4.43.25-7.24,5.39-4.93,9.11.5.81.24,1-.46,1.39a3.27,3.27,0,0,0-1.76,3.8A3,3,0,0,0,129,218.4a5.5,5.5,0,0,0,2.32-.05,31.44,31.44,0,0,0,6.16,4.91L131.76,240a4.88,4.88,0,0,0-1,0c-3.58.68-7.16,1.35-10.73,2.09-1.6.34-3.24.53-4.63,1.61a73.68,73.68,0,0,0-11.91,11.37c-3.84,4.73-7,9.84-8.15,15.93,0,.2,0,.39-.07.58a21.43,21.43,0,0,0,5.21,18.4c3.53,4,8.28,5.58,13.56,5.63.26,6.93.81,13.84,1.54,20.74A151.14,151.14,0,0,0,114,335.09a88.52,88.52,0,0,0-.35,10.8q-.16,17.33,1.35,34.59.57,6.74,1.13,13.46a2.3,2.3,0,0,1-1.55-.72,145.56,145.56,0,0,1-38.2-54,165.78,165.78,0,0,1-10.13-34.91c-1-5.29-1.56-10.62-2.08-16a179.09,179.09,0,0,1-.78-23.61c.2-5.9.65-11.8,1.31-17.69.68-6.16,1.58-12.29,2.78-18.37a205.78,205.78,0,0,1,5-20.19c2.23-7.26,4.65-14.45,7.56-21.46q3.5-8.44,7.62-16.59a2.87,2.87,0,0,0,.57-1.63c.13.06.31.08.37.18a23.68,23.68,0,0,0,4.88,5.77c.51.39.34,1,.27,1.5-.18,1.35-.3,2.71-.6,4a1.1,1.1,0,0,0,.72,1.47q2.44,1.17,4.83,2.44a1.51,1.51,0,0,0,2.07-.31c.87-.91,1.9-1.68,2.77-2.59a2,2,0,0,1,2-.55c.57.11,1.16.14,1.72.27,1.69.39,3.55-.19,5.06.39s2.24,2.57,3.31,3.94a1.25,1.25,0,0,0,1.65.47c.49-.2,1-.3,1.52-.5,1.54-.6,3.59-.56,4.54-1.76s.29-3.19.32-4.83a1.76,1.76,0,0,1,.91-1.66,15.51,15.51,0,0,0,4.14-3.43,3.13,3.13,0,0,1,3.51-1.11c1,.17,1.91.32,2.86.51a1.15,1.15,0,0,0,1.44-.65q1.31-2.61,2.7-5.18a1.21,1.21,0,0,0-.32-1.66c-1-1-1.92-2.07-2.89-3.09a1.29,1.29,0,0,1-.47-1.41,15,15,0,0,0,.46-5.5,3,3,0,0,1,1.56-3.1c1.18-.72,2.74-1.37,3.19-2.65.38-1.1-.66-2.36-.94-3.58a2.5,2.5,0,0,0,0-.29c-.89-3.21-.89-3.21-4.2-3.33a3.62,3.62,0,0,1-.87-.08c-1-.29-2.29.11-3-1.29A9.77,9.77,0,0,0,129,138c-1.84-1.38-1.91-3.06-1.46-5,.06-.28.14-.56.21-.85.4-1.5.08-2.57-1.59-3.07a12.81,12.81,0,0,1-2.6-1.34c-2.09-1.21-2.09-1.23-4,.36a8.19,8.19,0,0,0-1.32,1.15,2.76,2.76,0,0,1-3.67,1.05c.32-1.24,1.33-2,2.11-2.9,2.49-2.77,4.76-5.74,7.6-8.17,1.07.45,2.17.85,3.22,1.35.71.34,1.41.65,1.86-.26s-.38-1.22-.9-1.58c-.76-.51-1.77-.55-2.45-1.23a82.08,82.08,0,0,1,6.6-6.59c2.62-2.39,5.24-4.78,8-7A180.09,180.09,0,0,1,160.17,90c5-3,10.11-5.85,15.37-8.38,2.15-1,4.33-2,6.51-3a3,3,0,0,1,1.69-.39c-3.41,2.49-7,4.79-10.18,7.52a94.07,94.07,0,0,0-13.88,14.12,4.87,4.87,0,0,0-1.17,1.46l-4.39,6c-1.56,0-2.86.85-4.32,1.16a1.05,1.05,0,0,0-.94,1.36c.47,2.28-.59,3.76-2.45,4.85a3.24,3.24,0,0,0-.9.74,2,2,0,0,1-2.31.82c-2.53-.93-3.52.52-4.24,2.52a1.23,1.23,0,0,1-.19.4,1.56,1.56,0,0,0,.37,2.41c1.54,1.1,1.77,2.49,1.54,4.27-.27,2.06-.38,4-2.67,5-.62.26-.66.88-.53,1.52.82,3.87,1,4,5,4.11l.29,0a62.89,62.89,0,0,0,3.85,33.62A9.31,9.31,0,0,0,147.63,172.54Zm-7,11c0-.91-.73-1.37-1.45-.83-.92.69-1.76,1.5-2.61,2.27a1,1,0,0,0-.2,1.2,1.08,1.08,0,0,0,.89.67C138.08,186.9,140.64,184.36,140.65,183.55ZM98.82,195.19a1.35,1.35,0,0,0,1.31-.86c.24-.65-.24-1-.74-1.22-1-.4-2-.72-3-1.1a1,1,0,0,0-1.29.6.84.84,0,0,0,.36,1.24C96.56,194.34,97.7,194.75,98.82,195.19ZM92,190.64c-.06-.14-.09-.42-.25-.57a14.51,14.51,0,0,0-3.55-2.22c-.4-.2-.72.18-1,.49a.71.71,0,0,0,.09,1,9.7,9.7,0,0,0,3.25,2.13A1,1,0,0,0,92,190.64Zm40.8-2.55c-1,.57-2.09,1.18-3.15,1.83-.46.28-.94.65-.59,1.28a1.09,1.09,0,0,0,1.6.51c1-.54,1.9-1.13,2.84-1.73a.86.86,0,0,0,.27-1.16A1.2,1.2,0,0,0,132.84,188.09Zm4.24-63.31a1.62,1.62,0,0,0-.24-.53,12.78,12.78,0,0,0-3.33-2.52c-.42-.22-.85.13-1.14.46s-.13.85.23,1.14a29.34,29.34,0,0,0,2.89,2.2C136.21,126,136.76,125.53,137.08,124.78Zm8.83,52.11c0-.61.05-1.07-.43-1.3a1,1,0,0,0-1.29.34c-.61.86-1.17,1.77-1.78,2.63-.31.45-.43.91,0,1.32a1,1,0,0,0,1.46.08A9.71,9.71,0,0,0,145.91,176.89ZM126,193.23c0-.71-.33-1.2-1.05-1a31.85,31.85,0,0,0-3.29,1.12.88.88,0,0,0-.52,1.3.93.93,0,0,0,1.16.59,27.16,27.16,0,0,0,3.15-1.07A.87.87,0,0,0,126,193.23Zm-18.75,3.58a1.15,1.15,0,0,0,1.43-.95c.15-.76-.38-.9-1-1.11-1-.31-1.94-.06-2.86-.33a.92.92,0,0,0-1.3.74c-.17.63.21.91.79,1.16C105.28,196.74,106.36,196.32,107.26,196.81Zm8.47-2.27c-.81-.24-1.52.29-2.31.27s-1.21.18-1.13,1a1.12,1.12,0,0,0,1.32,1.06,12.89,12.89,0,0,1,2.16-.28c.84.07,1.68-.1,1.7-1.12C117.49,194.18,116.42,194.62,115.73,194.54Z" transform="translate(-63.3 -61.8)"/><path class="illustration-cls-4" d="M324.29,427.07a5.17,5.17,0,0,1-2.11-3.8c-.49-3.77-.73-7.54-.89-11.34a72.14,72.14,0,0,1,2.14-21.22c1.83-7,4.92-13.43,10.23-18.58a34.81,34.81,0,0,1,17.76-8.93c8.66-1.77,17.22-.86,25.75,1,6.37,1.36,12.62,3.22,19.07,4.19,3,.45,6.05,1.05,9.13.5,7.51-.06,13.73-3.14,19.1-8.19.25-.24.49-.48.75-.7a1.67,1.67,0,0,1,2.14-.25,1.78,1.78,0,0,1,.82,2,53.78,53.78,0,0,1-10.34,23.41c-8.74,11.12-20.53,17.16-34.06,20.25-6.55,1.49-13.25,2-19.84,3.2-.53.09-1,.22-1.57.34a2.82,2.82,0,0,0-.58,0,190.15,190.15,0,0,0-19.76,4.2c-3.69,1-7.36,2.2-10.55,4.47a5.85,5.85,0,0,0-2.83,5.4,6.14,6.14,0,0,1-.29,2.88A3.65,3.65,0,0,1,324.29,427.07Zm77.26-49.83a39.12,39.12,0,0,0,5.19-.24,23.49,23.49,0,0,0,14.65-8.54c.22-.26.5-.53.19-.88a.79.79,0,0,0-1.06-.16,6.22,6.22,0,0,0-.95.9,22.93,22.93,0,0,1-6.72,5.05c-5.8,2.69-11.93,2.47-18.05,1.73-4.76-.57-9.48-1.47-14.21-2.23l-18.95-3a41.36,41.36,0,0,0-12.9-.5,23.81,23.81,0,0,0-15.12,8.87c-4.14,5.06-6.34,11-7.84,17.25a96.51,96.51,0,0,0-2.27,24.68c0,.49.23.75.7.71s.66-.31.53-.7a6.05,6.05,0,0,1-.17-1.74,82.76,82.76,0,0,1,2.12-20.82c1.87-7.84,4.66-15.26,10.87-20.9A21.31,21.31,0,0,1,351,371.12c5.08-.3,10.06.69,15,1.47,5.75.88,11.47,1.92,17.22,2.79S394.75,377.46,401.55,377.24Z" transform="translate(-63.3 -61.8)"/><path class="illustration-cls-4" d="M114.58,130.31a2.76,2.76,0,0,0,3.67-1.05,8.19,8.19,0,0,1,1.32-1.15c1.9-1.59,1.9-1.57,4-.36a12.81,12.81,0,0,0,2.6,1.34c1.67.5,2,1.57,1.59,3.07-.07.29-.15.57-.21.85-.45,1.94-.38,3.62,1.46,5a9.77,9.77,0,0,1,2.65,3.26c.73,1.4,2,1,3,1.29a3.62,3.62,0,0,0,.87.08c3.31.12,3.31.12,4.2,3.33a2.5,2.5,0,0,1,0,.29c.28,1.22,1.32,2.48.94,3.58-.45,1.28-2,1.93-3.19,2.65a3,3,0,0,0-1.56,3.1,15,15,0,0,1-.46,5.5,1.29,1.29,0,0,0,.47,1.41c1,1,1.9,2.09,2.89,3.09a1.21,1.21,0,0,1,.32,1.66q-1.39,2.56-2.7,5.18a1.15,1.15,0,0,1-1.44.65c-.95-.19-1.91-.34-2.86-.51a3.13,3.13,0,0,0-3.51,1.11,15.51,15.51,0,0,1-4.14,3.43,1.76,1.76,0,0,0-.91,1.66c0,1.64.65,3.61-.32,4.83s-3,1.16-4.54,1.76c-.49.2-1,.3-1.52.5a1.25,1.25,0,0,1-1.65-.47c-1.07-1.37-1.72-3.33-3.31-3.94s-3.37,0-5.06-.39c-.56-.13-1.15-.16-1.72-.27a2,2,0,0,0-2,.55c-.87.91-1.9,1.68-2.77,2.59a1.51,1.51,0,0,1-2.07.31q-2.39-1.28-4.83-2.44a1.1,1.1,0,0,1-.72-1.47c.3-1.32.42-2.68.6-4,.07-.52.24-1.11-.27-1.5A23.68,23.68,0,0,1,88.59,169c-.06-.1-.24-.12-.37-.18-1.56,0-3.12-.11-4.68-.09A1.35,1.35,0,0,1,82,167.65c-.5-1.83-1.09-3.63-1.72-5.42a1,1,0,0,1,.43-1.34c1.15-.82,2.27-1.69,3.39-2.55.46-.35,1-.67.9-1.38a20.17,20.17,0,0,1,.54-6.79,1.19,1.19,0,0,0-.38-1.17c-1-1.05-2-2.16-3-3.18a1.29,1.29,0,0,1-.29-1.79q1.31-2.37,2.45-4.82a1.43,1.43,0,0,1,1.74-.92,12.64,12.64,0,0,1,2.16.33c2,.7,3.4,0,4.7-1.53a12.21,12.21,0,0,1,3.53-2.8,1.62,1.62,0,0,0,.93-1.64c-.06-1.36,0-2.73,0-4.1a1.28,1.28,0,0,1,1-1.38c1.72-.51,3.45-1,5.15-1.63a1.45,1.45,0,0,1,2,.63c1.62,3,3.9,4.67,7.49,4A5.46,5.46,0,0,1,114.58,130.31Zm-3.92,42.82a17.39,17.39,0,0,0,13.3-6.65,15.09,15.09,0,0,0,3-5.66c.1-.37.37-.82-.17-1s-.53.43-.7.73a2.11,2.11,0,0,0-.12.43c-2.33,7.43-10.31,12.08-17.82,11a16.53,16.53,0,0,1-14.06-18.61,16.34,16.34,0,0,1,15.31-14.2c6-.42,10.85,2.14,14.45,7,.28.37.5,1.1,1,.72s-.1-.86-.35-1.22a17.3,17.3,0,0,0-17.66-7,17.62,17.62,0,0,0-13.72,19.23A17.87,17.87,0,0,0,110.66,173.13Zm-.28-10.54c4.14.47,7.22-3.53,7.16-6.82a7,7,0,1,0-14.09-.08C103.36,159.25,106.67,163,110.38,162.59Z" transform="translate(-63.3 -61.8)"/><path class="illustration-cls-5" d="M353.58,132.39a88,88,0,0,0-4.73-13.79,86.77,86.77,0,0,0-11-18.86,84,84,0,0,0-14.27-14.37,93.07,93.07,0,0,0-18.45-11.43,68.79,68.79,0,0,0-9.56-4,1.16,1.16,0,0,1-.82-.56A96.38,96.38,0,0,1,311.3,74a102.09,102.09,0,0,1,24.13,12.36,8,8,0,0,0,.75.43l.71.5a.13.13,0,0,0,.15.09c.33.29.65.59,1,.85,14.92,11.23,24.78,26,30.47,43.65a1.54,1.54,0,0,1-.53.19Z" transform="translate(-63.3 -61.8)"/><path class="illustration-cls-4" d="M353.58,132.39l14.4-.34a1.54,1.54,0,0,0,.53-.19c7.73,0,15.44-.41,23.15-.67,4.77-.14,9.55-.18,14.31-.45s9.59-.09,13.3,3.73a12.27,12.27,0,0,1,3.69,8.65c.05,11.91,0,23.81,0,35.72a6.64,6.64,0,0,1-1.78,4.51,7.53,7.53,0,0,1-5.07,1.83c-6.79.28-13.58.72-20.37,1.08-2.18.12-4.37.13-6.55.27-5.54.34-11.08.46-16.62.68-.72,0-1.44.18-2.16.27-3.75-.09-7.48.23-11.21.45a48.59,48.59,0,0,0-6.82.41c-5.8.09-11.58.49-17.37.8q-3.28.18-6.57.33c-5.6.23-11.22.25-16.79.76-2.91.27-5.75,1.39-8.61,2.15-4.56,1.2-9.11,2.43-13.82,3.41,1.1-1.18,2.18-2.39,3.31-3.55,4.63-4.75,9.27-9.5,13.94-14.2a2.83,2.83,0,0,0,.81-2.22c0-11,.13-21.95-.07-32.93a9.16,9.16,0,0,1,9.23-9.34c10.73-.15,21.44-.56,32.16-.88C350.28,132.62,351.93,132.48,353.58,132.39Zm-44.81,30c0,6.54,0,13.08,0,19.62a6.25,6.25,0,0,0,6.37,6.41c2.58,0,5.16-.09,7.74-.24,6-.35,12.05-.59,18.08-.89,6.41-.32,12.83-.59,19.25-.88,6.18-.28,12.35-.61,18.52-.89s12.25-.53,18.38-.89c5.54-.32,11.09-.43,16.64-.65,5.1-.2,7.7-2.52,7.71-7,0-10.74.06-21.48,0-32.22a12.52,12.52,0,0,0-13.14-12.85c-5.26.08-10.51.42-15.77.52-6.53.12-13.05.38-19.57.57-6.29.19-12.57.4-18.85.58-6.67.2-13.34.37-20,.61-5.45.2-10.92.23-16.37.37a8.85,8.85,0,0,0-9,9.24C308.89,150,308.77,156.15,308.77,162.35Z" transform="translate(-63.3 -61.8)"/><path class="illustration-cls-3" d="M391.66,131.19c-7.71.26-15.42.68-23.15.67C362.82,114.2,353,99.44,338,88.21c-.35-.26-.67-.56-1-.85a2.65,2.65,0,0,1,1.79.5,165,165,0,0,1,46,35.06A47.57,47.57,0,0,1,391.66,131.19Z" transform="translate(-63.3 -61.8)"/><path class="illustration-cls-6" d="M116.14,393.94q-.57-6.72-1.13-13.46c1,0,2.19-.34,2.66,1.08.09.29.46.3.73.39,1.31.46,3,.39,3.07,2.49,0,.35.45.43.83.37a1.51,1.51,0,0,1,2,1.48c0,.41.21.69.64.56,1.16-.33,1.69.38,2.13,1.24a1.58,1.58,0,0,0,1.39.89c0,.53,0,1.07,0,1.6q-.06,6.66-.14,13.31c-.34,5-.17,10-.27,15,0,.49,0,1,0,1.46a2,2,0,0,1-1.46,2.2,13.88,13.88,0,0,1-5.18.08,2.58,2.58,0,0,1-1.24-1.86c-1.44-6.87-2.39-13.81-3.2-20.78C116.7,398,116.41,396,116.14,393.94Z" transform="translate(-63.3 -61.8)"/><path class="illustration-cls-7" d="M128.31,403.89q.08-6.66.14-13.31c0-.53,0-1.07,0-1.6s.13-.87.14-1.3c.33-12.19.93-24.37,2.15-36.51a3.6,3.6,0,0,1,.42-1.73c.36,3.56.62,7.14,1.1,10.69q1,7.61,2.3,15.16a84,84,0,0,0,2,10.18c.69,4.63,1.81,9.17,2.83,13.73,1,4.31,2,8.61,3.07,12.91-2.16-.41-3.82-1.83-5.63-2.9C133.91,407.52,131.13,405.67,128.31,403.89Z" transform="translate(-63.3 -61.8)"/><path class="illustration-cls-6" d="M142.42,412.11c-1-4.3-2.1-8.6-3.07-12.91-1-4.56-2.14-9.1-2.83-13.73a3.62,3.62,0,0,1,1.84.81q5.23,3.87,10.44,7.79a2.07,2.07,0,0,0,1.46.47c.89,7.56,1.68,15.14,3.3,22.6.08.38.2.75.3,1.12-.06,1,.86,2-.12,2.95a26.56,26.56,0,0,1-6.08,1.46c-1.69.09-2.51-.78-2.91-2.37C144.05,417.55,143.2,414.84,142.42,412.11Z" transform="translate(-63.3 -61.8)"/><path class="illustration-cls-8" d="M154.49,425l13.13,5.92c2.26,1,4.51,2.07,6.74,3.12a5,5,0,0,1,1.21.79,1.35,1.35,0,0,1,.47,1.57c-.25.59-.78.66-1.34.67-8.38.09-16.76-.16-25.12-.64a3.07,3.07,0,0,1-2.86-3.43c.22-2.61.62-5.21.94-7.82.42.26.13.93.76,1.12a7.54,7.54,0,0,0,5.49.05C154.57,426,154.77,425.63,154.49,425Z" transform="translate(-63.3 -61.8)"/><path class="illustration-cls-7" d="M328.36,425.86a6.14,6.14,0,0,0,.29-2.88,5.85,5.85,0,0,1,2.83-5.4c3.19-2.27,6.86-3.43,10.55-4.47a190.15,190.15,0,0,1,19.76-4.2,2.82,2.82,0,0,1,.58,0c-1.08,1.37-2.69,2-4.12,2.85a183.59,183.59,0,0,1-28.9,13.88A5.41,5.41,0,0,1,328.36,425.86Z" transform="translate(-63.3 -61.8)"/><path class="illustration-cls-8" d="M126.92,426.08c2.57,2.59,3.48,5.9,4,9.36a1.91,1.91,0,0,1-1.91,2.14,50.16,50.16,0,0,1-8-.43,2,2,0,0,1-1.87-2.71,42.24,42.24,0,0,1,2.66-8.79c.66,1.74,1.43,2.13,3.71,2C126.45,427.54,127.13,427.26,126.92,426.08Z" transform="translate(-63.3 -61.8)"/><path class="illustration-cls-9" d="M154.49,425c.28.65.08,1.06-.58,1.35a7.54,7.54,0,0,1-5.49-.05c-.63-.19-.34-.86-.76-1.12v-2.49a26.56,26.56,0,0,0,6.08-1.46Z" transform="translate(-63.3 -61.8)"/><path class="illustration-cls-9" d="M126.92,426.08c.21,1.18-.47,1.46-1.47,1.53-2.28.17-3-.22-3.71-2l-.36-3a13.88,13.88,0,0,0,5.18-.08Z" transform="translate(-63.3 -61.8)"/><path class="illustration-cls-7" d="M72.92,146.53c-.28,1.31-.51,2.34-.73,3.38-.14.66-.47,1.1-1.2.91a1.09,1.09,0,0,1-.87-1.32,23.15,23.15,0,0,1,.61-3c.17-.57.54-1.23,1.33-1.05A1,1,0,0,1,72.92,146.53Z" transform="translate(-63.3 -61.8)"/><path class="illustration-cls-7" d="M103.16,116.91a1.92,1.92,0,0,1-.18.53,12.21,12.21,0,0,1-4.4,1.08,1.16,1.16,0,0,1-.66-1,.75.75,0,0,1,.51-.79,14.45,14.45,0,0,1,3.64-.94C102.78,115.69,103.19,116,103.16,116.91Z" transform="translate(-63.3 -61.8)"/><path class="illustration-cls-7" d="M119.23,117.8c-.67-.14-1.56-.36-2.46-.52a1.07,1.07,0,0,1-1-1.48c.2-.77.84-.7,1.43-.59.81.14,1.6.39,2.41.5s1.37.38,1.35,1.21C121,118,120.12,117.74,119.23,117.8Z" transform="translate(-63.3 -61.8)"/><path class="illustration-cls-7" d="M73.57,142.09c-.89,0-1.33-.43-1.07-1.19a31.89,31.89,0,0,1,1.39-3.18,1.07,1.07,0,0,1,1.6-.47c.61.3.49.86.26,1.39l-1.18,2.65C74.37,141.77,74.08,142.13,73.57,142.09Z" transform="translate(-63.3 -61.8)"/><path class="illustration-cls-7" d="M79.76,129.47c.71.25,1.45.6,1,1.42a23.35,23.35,0,0,1-2.3,3,.91.91,0,0,1-1.2.19.89.89,0,0,1-.37-1.15,9.5,9.5,0,0,1,2.37-3.25A1.72,1.72,0,0,1,79.76,129.47Z" transform="translate(-63.3 -61.8)"/><path class="illustration-cls-7" d="M109.39,116.87a12.62,12.62,0,0,1-1.74,0,1,1,0,0,1-.91-1,1,1,0,0,1,.91-1,31.4,31.4,0,0,1,3.63,0,1,1,0,0,1,.91,1,1,1,0,0,1-.91,1A14.88,14.88,0,0,1,109.39,116.87Z" transform="translate(-63.3 -61.8)"/><path class="illustration-cls-7" d="M93.4,118.67c.63,0,1.08,0,1.21.57s.16,1-.4,1.26c-1,.52-1.94,1.08-2.94,1.57a1,1,0,0,1-1.38-.48c-.37-.53-.08-.94.34-1.23A10.4,10.4,0,0,1,93.4,118.67Z" transform="translate(-63.3 -61.8)"/><path class="illustration-cls-7" d="M87.05,124.27a1.11,1.11,0,0,1-.47.87c-.72.64-1.47,1.26-2.19,1.9-.44.41-1,.61-1.42.17a1.06,1.06,0,0,1,0-1.57,16.31,16.31,0,0,1,2.54-2.16A1,1,0,0,1,87.05,124.27Z" transform="translate(-63.3 -61.8)"/><path class="illustration-cls-10" d="M126,117.52c.68.68,1.69.72,2.45,1.23.52.36,1.32.73.9,1.58s-1.15.6-1.86.26c-1.05-.5-2.15-.9-3.22-1.35,0-.18,0-.37,0-.56a1.34,1.34,0,0,0,1.17-1.17Z" transform="translate(-63.3 -61.8)"/><path class="illustration-cls-7" d="M69.77,156.1c.09-.68-.27-1.74,1-1.66s1.07,1,1.1,1.89-.12,1.74-1.09,1.72C69.59,158,69.81,156.94,69.77,156.1Z" transform="translate(-63.3 -61.8)"/><path class="illustration-cls-3" d="M125.45,117.51a1.34,1.34,0,0,1-1.17,1.17A1.12,1.12,0,0,1,125.45,117.51Z" transform="translate(-63.3 -61.8)"/><path class="illustration-cls-3" d="M336.89,87.27l-.71-.5C336.57,86.72,336.84,86.84,336.89,87.27Z" transform="translate(-63.3 -61.8)"/><path class="illustration-cls-3" d="M184.31,78a.68.68,0,0,1-.59.33A.55.55,0,0,1,184.31,78Z" transform="translate(-63.3 -61.8)"/><path class="illustration-cls-4" d="M420.66,256.58a70.49,70.49,0,0,1-9,36.36A75.43,75.43,0,0,1,401,307.51c-7.4,8.05-16.18,14.26-25.48,19.87a167.38,167.38,0,0,0-20.77,14.86,136.27,136.27,0,0,0-11.86,11.05,99,99,0,0,0-17.15,24.08,71,71,0,0,0-7.33,24.76,59.86,59.86,0,0,0,1.21,20.54,2.47,2.47,0,0,1-1.12,3.13c-1.3.72-2.36.21-3.2-.85a78.45,78.45,0,0,1-6.24-9.7,107.84,107.84,0,0,1-11.19-28.15,99.74,99.74,0,0,1-2.33-14.8,78.69,78.69,0,0,1,3.92-31.92A89.35,89.35,0,0,1,315.58,312a201,201,0,0,1,14.93-15.67c5.61-5.48,11.32-10.86,17.07-16.21q10.53-9.81,21.21-19.46c5.26-4.74,10.38-9.62,15.23-14.76,5.36-5.68,10.24-11.75,13.54-18.93a51.72,51.72,0,0,0,4.32-15.83,3.54,3.54,0,0,1,3.1-3.5,3.48,3.48,0,0,1,3.77,2.11,118.64,118.64,0,0,1,10.41,30.59A72.5,72.5,0,0,1,420.66,256.58ZM302.3,374.15a97.74,97.74,0,0,0,9.26,40.61c.3.63.49,1.82,1.52,1.32s.32-1.4.05-2.08c-1.22-3.13-2.27-6.31-3.25-9.52a95,95,0,0,1-4-23,91.72,91.72,0,0,1,8.17-41.67,105.73,105.73,0,0,1,21.08-30.28c2.2-2.26,4.6-4.33,7-6.42a87.65,87.65,0,0,1,12.3-9.1c6.63-4.06,13.34-8,19.3-13.07a92.92,92.92,0,0,0,16.8-18.35,65.81,65.81,0,0,0,9.72-20.15c.17-.63.45-1.3-.43-1.56s-.93.46-1.14,1a59.83,59.83,0,0,1-5.39,10.35A97,97,0,0,1,376.77,272,103.69,103.69,0,0,1,364.11,282c-5.07,3.35-10.4,6.31-15.43,9.71a109.38,109.38,0,0,0-21.28,19,105.61,105.61,0,0,0-16.9,26.13A91.89,91.89,0,0,0,302.3,374.15Z" transform="translate(-63.3 -61.8)"/><path class="illustration-cls-11" d="M246.13,435.46c-4.08-.93-8.16-1.79-11.92-3.77a34,34,0,0,1,10.73-63.83,35.6,35.6,0,0,1,12.05.39c.85.17,1.72.27,2.57.4.35.59,1,.56,1.52.74a33.35,33.35,0,0,1,16.31,12.3,32.55,32.55,0,0,1,5.9,24.85c-1.79,11.35-7.88,19.68-18,25.09a30.48,30.48,0,0,1-15.3,3.65A10.41,10.41,0,0,0,246.13,435.46Zm-8.24-56.69c-.28.14-.51.23-.72.35a24.71,24.71,0,0,0-4.28,3,25.57,25.57,0,0,0-4.15,33.91,26,26,0,0,0,6,6.14c.35.26.87.78,1.25.22s-.36-.69-.66-.94a39.53,39.53,0,0,1-3.12-2.64,24.33,24.33,0,0,1-7-19.41c.62-7.58,4.16-13.45,10.12-18,.8-.62,1.73-1.07,2.6-1.62.25-.15.52-.34.34-.69C238.21,379,238,378.89,237.89,378.77Zm13.57-3c-.56,0-.8,0-1,0s-1-.18-1,.48.59.36.93.47a2.9,2.9,0,0,0,.71.15,21.48,21.48,0,0,1,9.24,2.25c.38.19.95.41,1.15-.07s-.43-.67-.79-.84A25.71,25.71,0,0,0,251.46,375.81Z" transform="translate(-63.3 -61.8)"/><path class="illustration-cls-5" d="M352.4,188.34a48.59,48.59,0,0,1,6.82-.41c3.73-.22,7.46-.54,11.21-.45a62.23,62.23,0,0,1-4.64,12,97.07,97.07,0,0,1-26.53,33.42c-7.35,5.95-14.91,11.66-21.69,18.3-14.9,14.62-25.15,32-31.47,51.86a162.66,162.66,0,0,0-7,36.23c-.35,4.28-.53,8.57-.61,12.86-.05,2.57-.79,3.27-3.37,3.24-9.51-.1-19-.13-28.54-.33-3.92-.09-7.62-1.57-11.4-2.48-1.56-.37-3.07-.92-4.61-1.39.45-.44,1-.24,1.53-.24,5.86,0,11.72-.12,17.57.06,3.12.1,6.23.21,9.35.22,2.28,0,3.11-.89,3.18-3.17a216.19,216.19,0,0,1,2-24.23,151.85,151.85,0,0,1,6.13-26.5,131.14,131.14,0,0,1,5.92-14.92,123.84,123.84,0,0,1,14.11-23.15,119.58,119.58,0,0,1,16.9-17.73c6.95-5.93,14.3-11.39,21.08-17.53a88.12,88.12,0,0,0,15.94-19.32A97,97,0,0,0,352.2,189,7.15,7.15,0,0,0,352.4,188.34Z" transform="translate(-63.3 -61.8)"/><path class="illustration-cls-5" d="M211.24,203c-6.41,2.55-13.07,2.11-19.72,1.62a61,61,0,0,1-14.3-2.58,9.45,9.45,0,0,1-3-1.38c2,.13,4,.56,6.08.65A33.76,33.76,0,0,0,192,199.71a40.33,40.33,0,0,0,18.25-11.39,26.4,26.4,0,0,0,7.18-16.07c.47-6.43-1.45-12.14-4.62-17.58-2.82-4.84-6-9.45-8.58-14.44-2.75-5.34-4.44-11-3.78-17a18.2,18.2,0,0,1,6.93-12.45c6.33-5.12,13.78-7.38,21.7-8.58a62.52,62.52,0,0,1,13-.46,41.51,41.51,0,0,1,14.47,3.71c.15.07.24.28.35.42-9.22-.26-18.17,1-26.59,5-5,2.38-9.35,5.66-11.85,10.83-2.77,5.72-2.18,11.54-.25,17.34s5.48,11.06,8.73,16.32c2.7,4.36,5.29,8.76,6.34,13.87,1.72,8.35-.44,15.71-5.72,22.25a30.29,30.29,0,0,1-6,5.73c-1.6-1.39-1.68-1.91-.45-3.35.69-.82,1.44-1.59,2.18-2.36a2.93,2.93,0,0,0,.79-1.21,1.24,1.24,0,0,0-.46-1.44c-.52-.38-.77.18-1.07.44a85.82,85.82,0,0,0-8.44,8.51C212.76,199.28,211,200.65,211.24,203Z" transform="translate(-63.3 -61.8)"/><path class="illustration-cls-4" d="M186.29,251.91a2.79,2.79,0,0,0,.55.2c2.39.44,2.56.73,1.46,2.87-5.41,10.57-10.71,21.2-16.72,31.45a96.61,96.61,0,0,1-5.39,8.5,2.61,2.61,0,0,1-2.45,1.21c-3.93-.14-7.87-.2-11.82-.29H140.37c-2.86,0-3.05-.32-2.31-3,.53-1.91,1.37-3.74,1.42-5.77v0l.29-.26.6-1.82a6.14,6.14,0,0,0,4-.86,17.33,17.33,0,0,0,3-2.89,1.91,1.91,0,0,1,1.4.2,1.75,1.75,0,0,0,2.48-.43c.64-.86-.55-1.18-.75-1.81l.14-.13c2.17-.33,2.37-.88.92-2.72.53-.23,1.17-.06,1.61-.52s.9-.82.86-1.45-.74-.65-1.21-.81a36,36,0,0,0-6-1.55,6.6,6.6,0,0,0-2.67-.5L148.61,256c.22-.77.47-1.57,1.41-1.63,3.34-.23,6.64-.89,10-.92a10.91,10.91,0,0,1-.2,1.88c-.44,1.87,0,2.3,1.85,2a6.46,6.46,0,0,1,1.16-.07c3.06.12,6.11-.29,9.16-.36,5.3-.13,5.3-.25,6.2-4.95H186Z" transform="translate(-63.3 -61.8)"/><path class="illustration-cls-12" d="M150.26,394.54a2.07,2.07,0,0,1-1.46-.47q-5.19-3.93-10.44-7.79a3.62,3.62,0,0,0-1.84-.81,84,84,0,0,1-2-10.18q-1.28-7.56-2.3-15.16c-.48-3.55-.74-7.13-1.1-10.69a3.6,3.6,0,0,0-.42,1.73c-1.22,12.14-1.82,24.32-2.15,36.51,0,.43-.09.87-.14,1.3a1.58,1.58,0,0,1-1.39-.89c-.44-.86-1-1.57-2.13-1.24-.43.13-.6-.15-.64-.56a1.51,1.51,0,0,0-2-1.48c-.38.06-.82,0-.83-.37,0-2.1-1.76-2-3.07-2.49-.27-.09-.64-.1-.73-.39-.47-1.42-1.64-1-2.66-1.08q-1.49-17.26-1.35-34.59a88.52,88.52,0,0,1,.35-10.8c.78-.11,1.28.44,1.81.82,4.76,3.51,9.5,7.06,14.26,10.58,5,3.72,10,7.45,15.13,11.1A10.43,10.43,0,0,0,148,359.4c.31,1-.06,1.93,0,2.89.22,3.41.62,6.82.59,10.23,0,2.36.18,4.72.39,7,.26,3,.34,6.08.71,9.11C149.9,390.61,150.21,392.57,150.26,394.54Z" transform="translate(-63.3 -61.8)"/><path class="illustration-cls-8" d="M148,359.4a10.43,10.43,0,0,1-2.77-1.81c-5.08-3.65-10.1-7.38-15.13-11.1-4.76-3.52-9.5-7.07-14.26-10.58-.53-.38-1-.93-1.81-.82a151.14,151.14,0,0,1,1.56-18.76,52.58,52.58,0,0,0,16.41.91A65,65,0,0,0,148,313.66c-.92,12.44-.3,24.9-.31,37.35C147.73,353.82,148.23,356.59,148,359.4Z" transform="translate(-63.3 -61.8)"/><path class="illustration-cls-5" d="M246.13,435.46a10.41,10.41,0,0,1,3.89-.18,30.48,30.48,0,0,0,15.3-3.65c10.09-5.41,16.18-13.74,18-25.09a32.55,32.55,0,0,0-5.9-24.85,33.35,33.35,0,0,0-16.31-12.3c-.53-.18-1.17-.15-1.52-.74,12.4,1,22.71,6,30.45,15.82,5.11,6.5,6.49,14,5.49,22.09a40.58,40.58,0,0,1-4.9,15.65c-5.25,9.05-13,14.1-23.6,14.21a142,142,0,0,1-18.56-.6C247.66,435.73,246.9,435.59,246.13,435.46Z" transform="translate(-63.3 -61.8)"/><path class="illustration-cls-13" d="M148,313.66A65,65,0,0,1,132,317.24a52.58,52.58,0,0,1-16.41-.91c-.73-6.9-1.28-13.81-1.54-20.74a40,40,0,0,0,15.53-3.72l.82-.29c3.19-1.21,6.06-3.06,9.1-4.54,0,2-.89,3.86-1.42,5.77-.74,2.71-.55,3,2.31,3h11.55c-1.06,4.56-2.15,9.12-3.19,13.7C148.42,310.9,148.26,312.29,148,313.66Z" transform="translate(-63.3 -61.8)"/><path class="illustration-cls-14" d="M186.29,251.91l-.27,0a42.07,42.07,0,0,1-8.22-17.26c3.45-1.34,6.95-2.51,10.28-4.12,7.4-3.58,14.19-7.95,19.26-14.6a36.54,36.54,0,0,0,3.56-6.49l4.36,1.53a103.11,103.11,0,0,1-3.85,11.86,62.35,62.35,0,0,1-12.29,19,52.85,52.85,0,0,1-11.26,9C187.32,251.19,186.81,251.56,186.29,251.91Z" transform="translate(-63.3 -61.8)"/><path class="illustration-cls-9" d="M215.26,210.94l-4.36-1.53c.9-2.1.43-4.26.34-6.4-.21-2.36,1.52-3.73,2.82-5.23a85.82,85.82,0,0,1,8.44-8.51c.3-.26.55-.82,1.07-.44a1.24,1.24,0,0,1,.46,1.44,2.93,2.93,0,0,1-.79,1.21c-.74.77-1.49,1.54-2.18,2.36-1.23,1.44-1.15,2,.45,3.35,0,1.4,1.12,2.61.61,4.08-1.12,3.28-2.35,6.49-5.87,8C215.47,209.6,215.55,210.35,215.26,210.94Z" transform="translate(-63.3 -61.8)"/><path class="illustration-cls-4" d="M142.73,136.55l-.29,0c-4-.12-4.14-.24-5-4.11-.13-.64-.09-1.26.53-1.52,2.29-1,2.4-2.94,2.67-5,.23-1.78,0-3.17-1.54-4.27a1.56,1.56,0,0,1-.37-2.41,1.23,1.23,0,0,0,.19-.4c.72-2,1.71-3.45,4.24-2.52a2,2,0,0,0,2.31-.82,3.24,3.24,0,0,1,.9-.74c1.86-1.09,2.92-2.57,2.45-4.85a1.05,1.05,0,0,1,.94-1.36c1.46-.31,2.76-1.21,4.32-1.16a9.85,9.85,0,0,0,1.88,2.73c.47.61,5.75.76,6.38.28a1.06,1.06,0,0,0,.23-.19c1.27-1.75,2.8-2.12,4.65-.91l.87.55a1.49,1.49,0,0,1,1,2.15c-.45,1.53-.49,3,1.12,4.08a2.25,2.25,0,0,1,.74.9c.86,1.77,2.34,2.21,4.13,2a1.41,1.41,0,0,1,1.8,1.36,3.5,3.5,0,0,0,.17.55c.93,3,.95,3-1.49,4.82a1.67,1.67,0,0,0-.83,1.8,5.54,5.54,0,0,1-.2,2.46,3,3,0,0,0,1.32,3.62c1.12.82,1.11,1.65.45,2.84-1.58,2.88-1.51,2.91-4.79,2.55h-.14c-1.09-.08-5,3.53-5,4.63-.06,2.94-.12,2.8-2.89,3.92-1.66.67-2.64.36-3.39-1.16a2.68,2.68,0,0,0-3.09-1.55,12.67,12.67,0,0,1-2,0,.94.94,0,0,0-.9-.24c-1.29-.21-1.73.94-2.39,1.61-.83.86-1.57,1.2-2.59.4a2,2,0,0,0-.25-.14c-3-1.53-3-1.53-2.5-4.84.07-.39.16-.76-.2-1.06A45.56,45.56,0,0,1,142.73,136.55Zm2.91-8.92a11.95,11.95,0,0,0,23.29,3.83c.16-.44.37-1-.21-1.28s-.92.34-1.08.85a10.63,10.63,0,0,1-16,5.53,10.84,10.84,0,0,1-4.6-10.74,10.65,10.65,0,0,1,16.48-7,12.45,12.45,0,0,1,2.88,2.87c.28.36.67.65,1.13.32s.12-.77-.13-1.11a12.75,12.75,0,0,0-4.6-4A11.86,11.86,0,0,0,145.64,127.63Zm16.69,0c.28-3-2.6-4.88-4.74-4.81a4.72,4.72,0,0,0-4.67,4.77c.14,2.78,2,4.83,4.69,4.84A4.6,4.6,0,0,0,162.33,127.62Z" transform="translate(-63.3 -61.8)"/><path class="illustration-cls-15" d="M168.13,109.82l-.87-.55a40,40,0,0,1,4.82-6.58,81.3,81.3,0,0,1,18.45-16.46A84.54,84.54,0,0,1,221.3,74.11a115.46,115.46,0,0,1,33.82-1.17c11.43,1,22.52,3.68,33.5,6.86.19,0,.37.13.55.19.42.13,1,.25.77.83s-.65.2-1,.1a201.72,201.72,0,0,0-22.23-5.42c-4.3-.79-8.64-1.25-13-1.71a113.56,113.56,0,0,0-16.49-.49,99.1,99.1,0,0,0-24.82,4A84.31,84.31,0,0,0,191.23,87a78.61,78.61,0,0,0-9.77,7.4,86.44,86.44,0,0,0-8.61,8.93,2,2,0,0,0-.61,1,2.37,2.37,0,0,0-.83.95A18,18,0,0,0,168.13,109.82Z" transform="translate(-63.3 -61.8)"/><path class="illustration-cls-15" d="M154.12,144.47a.94.94,0,0,1,.9.24,57.4,57.4,0,0,0,.3,9.08c0,.49-.18,1,.22,1.46a24.73,24.73,0,0,0,.58,3.73c.08.46.4,1.24-.3,1.36s-.59-.69-.67-1.11a44.11,44.11,0,0,1-1-7.33C154.09,149.43,154.12,147,154.12,144.47Z" transform="translate(-63.3 -61.8)"/><path class="illustration-cls-15" d="M163.42,177.31c-.1.1-.2.3-.35.35-.44.16-.58-.22-.77-.49a45.41,45.41,0,0,1-3.75-7.06c-.29-.61-.55-1.24-.81-1.87a.58.58,0,0,1,.24-.76.46.46,0,0,1,.71.27,47.24,47.24,0,0,0,4.62,9.21A1.62,1.62,0,0,1,163.42,177.31Z" transform="translate(-63.3 -61.8)"/><path class="illustration-cls-9" d="M149.16,162.67c.11-.91.17-1.82.36-2.71.12-.61.41-1.29,1.23-1.13a1.22,1.22,0,0,1,.93,1.56c-.12.85-.35,1.68-.46,2.54s-.32,1.43-1.17,1.32S149.1,163.4,149.16,162.67Z" transform="translate(-63.3 -61.8)"/><path class="illustration-cls-9" d="M147.63,172.54a9.31,9.31,0,0,1-1-2.37c.95-.19.82-1.11,1-1.72a1.1,1.1,0,0,1,1.43-.84.91.91,0,0,1,.61,1.38C149.05,170.21,149.31,171.94,147.63,172.54Z" transform="translate(-63.3 -61.8)"/><path class="illustration-cls-9" d="M149.74,153.39c.08-.59-.27-1.58.85-1.58s1.19,1,1.2,1.89,0,1.77-1,1.76C149.58,155.43,149.75,154.32,149.74,153.39Z" transform="translate(-63.3 -61.8)"/><path class="illustration-cls-14" d="M161.94,155c-.56-.05-1.19.08-1.23-.59s.46-.86,1-.87a9.21,9.21,0,0,0,2.4-.48c.5-.13.91-.11,1.08.4s-.14.81-.64.92Z" transform="translate(-63.3 -61.8)"/><path class="illustration-cls-14" d="M181.7,140.56a.7.7,0,0,1-.5-1.06c.36-.91.73-1.81,1.09-2.71a.71.71,0,0,1,.79-.51c.39.07.69.37.57.71a9.45,9.45,0,0,1-1.52,3.28A1.48,1.48,0,0,1,181.7,140.56Z" transform="translate(-63.3 -61.8)"/><path class="illustration-cls-9" d="M158.51,101.37a4.87,4.87,0,0,1,1.17-1.46c.38.82,1.14.5,1.78.61s1.92,0,1.83.89-1.25.52-2,.45C160.38,101.75,159.45,101.54,158.51,101.37Z" transform="translate(-63.3 -61.8)"/><path class="illustration-cls-14" d="M166.23,101.68a13.75,13.75,0,0,1,3,1.14.65.65,0,0,1,.3.87.55.55,0,0,1-.74.28c-1-.38-2.08-.78-3.11-1.21a.49.49,0,0,1-.31-.7C165.56,101.77,165.84,101.69,166.23,101.68Z" transform="translate(-63.3 -61.8)"/><path class="illustration-cls-9" d="M180.67,142.81a8.21,8.21,0,0,1-2.44,3c-.7.13-.81-.42-.59-.79a30,30,0,0,1,1.93-2.69.6.6,0,0,1,.8-.12A.53.53,0,0,1,180.67,142.81Z" transform="translate(-63.3 -61.8)"/><path class="illustration-cls-14" d="M184.36,130.12c.5,0,.83.29.77.71a24.64,24.64,0,0,1-.62,3.1c-.15.52-.58.66-1,.14a6.59,6.59,0,0,1,.45-3.78A2,2,0,0,1,184.36,130.12Z" transform="translate(-63.3 -61.8)"/><path class="illustration-cls-9" d="M176.37,147.55a2.78,2.78,0,0,1-1.34,1.52c-.71.36-1.35,1.88-2.17.82-.54-.7.8-1.28,1.37-1.86a4.31,4.31,0,0,1,1.15-.84C175.8,147,176.22,147,176.37,147.55Z" transform="translate(-63.3 -61.8)"/><path class="illustration-cls-9" d="M167.93,153.22c-.41,0-.68,0-.8-.27a.54.54,0,0,1,.24-.75c.94-.5,1.9-1,2.85-1.45a.54.54,0,0,1,.75.22.55.55,0,0,1-.08.79A10.57,10.57,0,0,1,167.93,153.22Z" transform="translate(-63.3 -61.8)"/><path class="illustration-cls-14" d="M171.41,105.21a2.37,2.37,0,0,1,.83-.95c.8.6,1.58,1.23,2.41,1.8.46.32.75.74.45,1.2s-.84.25-1.25-.08Z" transform="translate(-63.3 -61.8)"/><path class="illustration-cls-9" d="M155.54,155.25c-.4-.44-.19-1-.22-1.46.63,0,1.27,0,1.9,0s1.48-.22,1.5.68-1,.71-1.58.75S156.07,155.26,155.54,155.25Z" transform="translate(-63.3 -61.8)"/><path class="illustration-cls-14" d="M178.7,110.27c0,.38-.24.8-.58.65a2.93,2.93,0,0,1-1.67-1.71c-.13-.36.15-.65.53-.74S178.68,109.84,178.7,110.27Z" transform="translate(-63.3 -61.8)"/><path class="illustration-cls-9" d="M184,126.44c.17-.47-.27-1.31.6-1.22s.58.88.59,1.43.15,1.28-.62,1.21S184.14,126.92,184,126.44Z" transform="translate(-63.3 -61.8)"/><path class="illustration-cls-13" d="M177.8,234.62A42.07,42.07,0,0,0,186,251.88h-7.84c.07-.84-.22-1.3-1.16-1.19-.57.07-1.16,0-1.74.1-1,.12-1.5-.06-1-1.24.26-.67.44-1.56-.86-1.35-2.3.37-4.58.78-6.88,1.14a1.53,1.53,0,0,0-1.52,1.6c0,.73-.39,1-1.11,1s-1.25.24-1.87.2a1.76,1.76,0,0,0-2,1.25c-3.35,0-6.65.69-10,.92-.94.06-1.19.86-1.41,1.63l-4.44,15.54a4.7,4.7,0,0,0-4.29,3.2,8.68,8.68,0,0,0-.44,5.28,60.65,60.65,0,0,1-10.28,4.25,26.91,26.91,0,0,1-9.81,1,8.46,8.46,0,0,1-5.7-2.84c.14-4-.06-8,.36-12.47a14.91,14.91,0,0,0-2.91,5.32c-.62-.29-1.23-.59-1.85-.86A48.11,48.11,0,0,0,95.33,271c1.18-6.09,4.31-11.2,8.15-15.93a73.68,73.68,0,0,1,11.91-11.37c1.39-1.08,3-1.27,4.63-1.61,3.57-.74,7.15-1.41,10.73-2.09a4.88,4.88,0,0,1,1,0c0,.6.52.77,1,1a13.21,13.21,0,0,0,9.45.8c2.49-.71,5-1.35,6.44-3.87l11.55-.24A63.39,63.39,0,0,0,176,235C176.56,234.85,177.19,234.75,177.8,234.62Z" transform="translate(-63.3 -61.8)"/><path class="illustration-cls-9" d="M113.65,282.4a8.46,8.46,0,0,0,5.7,2.84,26.91,26.91,0,0,0,9.81-1,3.59,3.59,0,0,1,.37,1.83c0,1.93,0,3.87,0,5.8A40,40,0,0,1,114,295.59c-5.28,0-10-1.6-13.56-5.63a21.43,21.43,0,0,1-5.21-18.4c0-.19,0-.38.07-.58a48.11,48.11,0,0,1,13.92,3.41c.62.27,1.23.57,1.85.86C110.94,278,111.45,280.5,113.65,282.4Z" transform="translate(-63.3 -61.8)"/><path class="illustration-cls-9" d="M142.16,241.76a13.21,13.21,0,0,1-9.45-.8c-.43-.2-.92-.37-1-1l5.69-16.73c1,.36,2,.78,3,1.06s1.55.1,1.13-1.16c-.47-1.44-.82-2.9-2.75-3a1.65,1.65,0,0,1-.65-.32c-1.31-.77-2-2.07-1.45-3,.83-1.37,1.94-.54,3-.26.48.13.94.77,1.44.23s-.12-1-.33-1.42a3.59,3.59,0,0,0-.21-.38c-2-3.92-1.83-3.66,2.07-4.73,3.38-.92,6.8-1.67,9.8-3.58A106.17,106.17,0,0,1,156.61,217a28,28,0,0,1,1,4.41c.4,3.06-1.69,5.37-5,5.56-.88.05-1.76,0-2.63,0-2.09-.58-4.3-.68-6.28-1.67-1.2-.6-1.57-.37-1.58,1C142.13,231.47,142.15,236.61,142.16,241.76Z" transform="translate(-63.3 -61.8)"/><path class="illustration-cls-6" d="M152.48,206.74c-3,1.91-6.42,2.66-9.8,3.58-3.9,1.07-4,.81-2.07,4.73a3.59,3.59,0,0,1,.21.38c.21.46.82.9.33,1.42s-1-.1-1.44-.23c-1-.28-2.14-1.11-3,.26-.54.91.14,2.21,1.45,3a1.65,1.65,0,0,0,.65.32c1.93.08,2.28,1.54,2.75,3,.42,1.26-.2,1.41-1.13,1.16s-2-.7-3-1.06a31.44,31.44,0,0,1-6.16-4.91,2.26,2.26,0,0,1,.61-1.45l14.32-18.29c.59.16.85-.25,1.18-.63a9.29,9.29,0,0,1,1.33-1.33c1.93-1.49,3.71-1.16,5,.9A6.62,6.62,0,0,1,152.48,206.74Z" transform="translate(-63.3 -61.8)"/><path class="illustration-cls-12" d="M146.22,198.61,131.9,216.9a2.26,2.26,0,0,0-.61,1.45,5.5,5.5,0,0,1-2.32.05,3,3,0,0,1-2.81-2.55,3.27,3.27,0,0,1,1.76-3.8c.7-.36,1-.58.46-1.39-2.31-3.72.5-8.86,4.93-9.11a2.88,2.88,0,0,1,.88,0c1.29.31,1.74-.11,2-1.5.67-3.64,5.29-5.34,8.3-3.2A6.3,6.3,0,0,1,146.22,198.61Z" transform="translate(-63.3 -61.8)"/><path class="illustration-cls-14" d="M142.16,241.76c0-5.15,0-10.29,0-15.44,0-1.35.38-1.58,1.58-1,2,1,4.19,1.09,6.28,1.67-.28,2.1-.56,4.19-.82,6.29-.2,1.53-.38,3.06-.57,4.59C147.19,240.41,144.65,241.05,142.16,241.76Z" transform="translate(-63.3 -61.8)"/><path class="illustration-cls-10" d="M140.65,183.55c0,.81-2.57,3.35-3.37,3.31a1.08,1.08,0,0,1-.89-.67,1,1,0,0,1,.2-1.2c.85-.77,1.69-1.58,2.61-2.27C139.92,182.18,140.65,182.64,140.65,183.55Z" transform="translate(-63.3 -61.8)"/><path class="illustration-cls-10" d="M98.82,195.19c-1.12-.44-2.26-.85-3.36-1.34a.84.84,0,0,1-.36-1.24,1,1,0,0,1,1.29-.6c1,.38,2,.7,3,1.1.5.2,1,.57.74,1.22A1.35,1.35,0,0,1,98.82,195.19Z" transform="translate(-63.3 -61.8)"/><path class="illustration-cls-10" d="M92,190.64a1,1,0,0,1-1.42.87,9.7,9.7,0,0,1-3.25-2.13.71.71,0,0,1-.09-1c.24-.31.56-.69,1-.49a14.51,14.51,0,0,1,3.55,2.22C92,190.22,92,190.5,92,190.64Z" transform="translate(-63.3 -61.8)"/><path class="illustration-cls-10" d="M132.84,188.09a1.2,1.2,0,0,1,1,.73.86.86,0,0,1-.27,1.16c-.94.6-1.88,1.19-2.84,1.73a1.09,1.09,0,0,1-1.6-.51c-.35-.63.13-1,.59-1.28C130.75,189.27,131.84,188.66,132.84,188.09Z" transform="translate(-63.3 -61.8)"/><path class="illustration-cls-10" d="M137.08,124.78c-.32.75-.87,1.19-1.59.75a29.34,29.34,0,0,1-2.89-2.2c-.36-.29-.6-.71-.23-1.14s.72-.68,1.14-.46a12.78,12.78,0,0,1,3.33,2.52A1.62,1.62,0,0,1,137.08,124.78Z" transform="translate(-63.3 -61.8)"/><path class="illustration-cls-10" d="M145.91,176.89a9.71,9.71,0,0,1-2.08,3.07,1,1,0,0,1-1.46-.08c-.39-.41-.27-.87,0-1.32.61-.86,1.17-1.77,1.78-2.63a1,1,0,0,1,1.29-.34C146,175.82,145.93,176.28,145.91,176.89Z" transform="translate(-63.3 -61.8)"/><path class="illustration-cls-10" d="M126,193.23a.87.87,0,0,1-.55.93,27.16,27.16,0,0,1-3.15,1.07.93.93,0,0,1-1.16-.59.88.88,0,0,1,.52-1.3,31.85,31.85,0,0,1,3.29-1.12C125.68,192,126,192.52,126,193.23Z" transform="translate(-63.3 -61.8)"/><path class="illustration-cls-10" d="M107.26,196.81c-.9-.49-2-.07-3-.49-.58-.25-1-.53-.79-1.16a.92.92,0,0,1,1.3-.74c.92.27,1.91,0,2.86.33.63.21,1.16.35,1,1.11A1.15,1.15,0,0,1,107.26,196.81Z" transform="translate(-63.3 -61.8)"/><path class="illustration-cls-10" d="M115.73,194.54c.69.08,1.76-.36,1.74.89,0,1-.86,1.19-1.7,1.12a12.89,12.89,0,0,0-2.16.28,1.12,1.12,0,0,1-1.32-1.06c-.08-.78.47-1,1.13-1S114.92,194.3,115.73,194.54Z" transform="translate(-63.3 -61.8)"/><path class="illustration-cls-10" d="M401.55,377.24c-6.8.22-12.52-1-18.27-1.86s-11.47-1.91-17.22-2.79c-5-.78-10-1.77-15-1.47a21.31,21.31,0,0,0-13.46,5.58c-6.21,5.64-9,13.06-10.87,20.9a82.76,82.76,0,0,0-2.12,20.82,6.05,6.05,0,0,0,.17,1.74c.13.39-.14.67-.53.7s-.69-.22-.7-.71a96.51,96.51,0,0,1,2.27-24.68c1.5-6.23,3.7-12.19,7.84-17.25a23.81,23.81,0,0,1,15.12-8.87,41.36,41.36,0,0,1,12.9.5l18.95,3c4.73.76,9.45,1.66,14.21,2.23,6.12.74,12.25,1,18.05-1.73a22.93,22.93,0,0,0,6.72-5.05,6.22,6.22,0,0,1,.95-.9.79.79,0,0,1,1.06.16c.31.35,0,.62-.19.88A23.49,23.49,0,0,1,406.74,377,39.12,39.12,0,0,1,401.55,377.24Z" transform="translate(-63.3 -61.8)"/><path class="illustration-cls-10" d="M110.66,173.13a17.87,17.87,0,0,1-17.53-15.22,17.62,17.62,0,0,1,13.72-19.23,17.3,17.3,0,0,1,17.66,7c.25.36.87.84.35,1.22s-.76-.35-1-.72c-3.6-4.86-8.45-7.42-14.45-7a16.34,16.34,0,0,0-15.31,14.2A16.53,16.53,0,0,0,108.12,172c7.51,1,15.49-3.61,17.82-11a2.11,2.11,0,0,1,.12-.43c.17-.3.16-.9.7-.73s.27.62.17,1a15.09,15.09,0,0,1-3,5.66A17.39,17.39,0,0,1,110.66,173.13Z" transform="translate(-63.3 -61.8)"/><path class="illustration-cls-10" d="M110.38,162.59c-3.71.41-7-3.34-6.93-6.9a7,7,0,1,1,14.09.08C117.6,159.06,114.52,163.06,110.38,162.59Zm-5.17-6.92a5.29,5.29,0,1,0,5.3-5.39A5.27,5.27,0,0,0,105.21,155.67Z" transform="translate(-63.3 -61.8)"/><path class="illustration-cls-7" d="M308.77,162.35c0-6.2.12-12.4,0-18.6a8.85,8.85,0,0,1,9-9.24c5.45-.14,10.92-.17,16.37-.37,6.67-.24,13.34-.41,20-.61,6.28-.18,12.56-.39,18.85-.58,6.52-.19,13-.45,19.57-.57,5.26-.1,10.51-.44,15.77-.52a12.52,12.52,0,0,1,13.14,12.85c.07,10.74,0,21.48,0,32.22,0,4.49-2.61,6.81-7.71,7-5.55.22-11.1.33-16.64.65-6.13.36-12.25.6-18.38.89s-12.34.61-18.52.89c-6.42.29-12.84.56-19.25.88-6,.3-12.06.54-18.08.89-2.58.15-5.16.22-7.74.24a6.25,6.25,0,0,1-6.37-6.41C308.76,175.43,308.77,168.89,308.77,162.35Zm.59,0c0,6.49,0,13,0,19.47a5.72,5.72,0,0,0,6,6c4.43,0,8.85-.32,13.28-.57,6.51-.37,13-.65,19.54-.89,3.94-.15,7.87-.38,11.81-.56,6.17-.29,12.35-.6,18.52-.88s12.05-.62,18.08-.88c6.22-.27,12.44-.63,18.67-.85a5.84,5.84,0,0,0,5.48-5.61c-.16-11.23-.06-22.45-.07-33.68a10.32,10.32,0,0,0-.18-2.47,12,12,0,0,0-11.44-9c-5.21,0-10.41.35-15.62.5q-9.85.3-19.72.6l-18.4.57c-6.67.2-13.34.36-20,.61-5.84.22-11.7.23-17.54.37a8.17,8.17,0,0,0-8.4,8.56Q309.35,153,309.36,162.38Z" transform="translate(-63.3 -61.8)"/><path class="illustration-cls-10" d="M302.3,374.15a91.89,91.89,0,0,1,8.2-37.3,105.61,105.61,0,0,1,16.9-26.13,109.38,109.38,0,0,1,21.28-19c5-3.4,10.36-6.36,15.43-9.71A103.69,103.69,0,0,0,376.77,272a97,97,0,0,0,16.5-19.77,59.83,59.83,0,0,0,5.39-10.35c.21-.55.34-1.24,1.14-1s.6.93.43,1.56a65.81,65.81,0,0,1-9.72,20.15,92.92,92.92,0,0,1-16.8,18.35c-6,5.08-12.67,9-19.3,13.07a87.65,87.65,0,0,0-12.3,9.1c-2.38,2.09-4.78,4.16-7,6.42a105.73,105.73,0,0,0-21.08,30.28,91.72,91.72,0,0,0-8.17,41.67,95,95,0,0,0,4,23c1,3.21,2,6.39,3.25,9.52.27.68.83,1.66-.05,2.08s-1.22-.69-1.52-1.32a97.74,97.74,0,0,1-9.26-40.61Z" transform="translate(-63.3 -61.8)"/><path class="illustration-cls-15" d="M237.89,378.77c.14.12.32.21.4.36.18.35-.09.54-.34.69-.87.55-1.8,1-2.6,1.62-6,4.54-9.5,10.41-10.12,18a24.33,24.33,0,0,0,7,19.41,39.53,39.53,0,0,0,3.12,2.64c.3.25,1,.44.66.94s-.9,0-1.25-.22a26,26,0,0,1-6-6.14,25.57,25.57,0,0,1,4.15-33.91,24.71,24.71,0,0,1,4.28-3C237.38,379,237.61,378.91,237.89,378.77Z" transform="translate(-63.3 -61.8)"/><path class="illustration-cls-15" d="M251.46,375.81a25.71,25.71,0,0,1,9.19,2.44c.36.17,1,.29.79.84s-.77.26-1.15.07a21.48,21.48,0,0,0-9.24-2.25,2.9,2.9,0,0,1-.71-.15c-.34-.11-.93.07-.93-.47s.62-.43,1-.48S250.9,375.81,251.46,375.81Z" transform="translate(-63.3 -61.8)"/><path class="illustration-cls-10" d="M160,253.42a1.76,1.76,0,0,1,2-1.25c.62,0,1.25-.19,1.87-.2s1.09-.3,1.11-1a1.53,1.53,0,0,1,1.52-1.6c2.3-.36,4.58-.77,6.88-1.14,1.3-.21,1.12.68.86,1.35-.46,1.18,0,1.36,1,1.24.58-.06,1.17,0,1.74-.1.94-.11,1.23.35,1.16,1.19-.9,4.7-.9,4.82-6.2,4.95-3,.07-6.1.48-9.16.36a6.46,6.46,0,0,0-1.16.07c-1.85.34-2.29-.09-1.85-2A10.91,10.91,0,0,0,160,253.42Z" transform="translate(-63.3 -61.8)"/><path class="illustration-cls-9" d="M139.44,280a8.68,8.68,0,0,1,.44-5.28,4.7,4.7,0,0,1,4.29-3.2,6.45,6.45,0,0,1,2.67.51l0,7.72c0,.59-.05,1.19.63,1.49a17.33,17.33,0,0,1-3,2.89,6.14,6.14,0,0,1-4,.86A27.24,27.24,0,0,1,139.44,280Z" transform="translate(-63.3 -61.8)"/><path class="illustration-cls-14" d="M139.44,280a27.24,27.24,0,0,0,.92,5l-.6,1.82-.29.26v0c-3,1.48-5.91,3.33-9.1,4.54l-.82.29c0-1.93,0-3.87,0-5.8a3.59,3.59,0,0,0-.37-1.83A60.65,60.65,0,0,0,139.44,280Z" transform="translate(-63.3 -61.8)"/><path class="illustration-cls-14" d="M147.44,281.23c-.68-.3-.63-.9-.63-1.49l0-7.72a35.08,35.08,0,0,1,6,1.54c.47.16,1.17.09,1.21.81s-.45,1-.86,1.45-1.08.29-1.61.52c1.45,1.84,1.25,2.39-.93,2.72-.08-.11-.17-.2-.29,0l.16.17c.2.63,1.39.95.75,1.81a1.75,1.75,0,0,1-2.48.43A1.91,1.91,0,0,0,147.44,281.23Z" transform="translate(-63.3 -61.8)"/><path class="illustration-cls-13" d="M139.47,287.06l.29-.26Z" transform="translate(-63.3 -61.8)"/><path class="illustration-cls-10" d="M145.64,127.63A11.86,11.86,0,0,1,162.81,117a12.75,12.75,0,0,1,4.6,4c.25.34.68.7.13,1.11s-.85,0-1.13-.32a12.45,12.45,0,0,0-2.88-2.87,10.65,10.65,0,0,0-16.48,7,10.84,10.84,0,0,0,4.6,10.74,10.63,10.63,0,0,0,16-5.53c.16-.51.36-1.15,1.08-.85s.37.84.21,1.28a11.95,11.95,0,0,1-23.29-3.83Z" transform="translate(-63.3 -61.8)"/><path class="illustration-cls-10" d="M162.33,127.62a4.6,4.6,0,0,1-4.72,4.8c-2.69,0-4.55-2.06-4.69-4.84a4.72,4.72,0,0,1,4.67-4.77C159.73,122.74,162.61,124.6,162.33,127.62Zm-4.67-3.41a3.35,3.35,0,0,0-3.53,3.42,3.71,3.71,0,0,0,3.48,3.6,3.75,3.75,0,0,0,3.55-3.56A3.36,3.36,0,0,0,157.66,124.21Z" transform="translate(-63.3 -61.8)"/><path class="illustration-cls-1" d="M113.65,282.4c-2.2-1.9-2.71-4.41-2.55-7.15a14.91,14.91,0,0,1,2.91-5.32C113.59,274.35,113.79,278.37,113.65,282.4Z" transform="translate(-63.3 -61.8)"/><path class="illustration-cls-4" d="M105.21,155.67a5.29,5.29,0,1,1,10.57,0,5.29,5.29,0,1,1-10.57,0Z" transform="translate(-63.3 -61.8)"/><path class="illustration-cls-4" d="M309.36,162.38q0-9.37,0-18.74a8.17,8.17,0,0,1,8.4-8.56c5.84-.14,11.7-.15,17.54-.37,6.67-.25,13.34-.41,20-.61l18.4-.57q9.87-.28,19.72-.6c5.21-.15,10.41-.46,15.62-.5a12,12,0,0,1,11.44,9,10.32,10.32,0,0,1,.18,2.47c0,11.23-.09,22.45.07,33.68a5.84,5.84,0,0,1-5.48,5.61c-6.23.22-12.45.58-18.67.85-6,.26-12,.6-18.08.88s-12.35.59-18.52.88c-3.94.18-7.87.41-11.81.56-6.52.24-13,.52-19.54.89-4.43.25-8.85.56-13.28.57a5.72,5.72,0,0,1-6-6C309.34,175.36,309.36,168.87,309.36,162.38Zm46.85-17.13c3.72-.44,7.48-.26,11.21-.44,5.44-.27,10.89-.4,16.34-.63,7.14-.3,14.3-.45,21.45-.63,1.17,0,2.33-.13,3.49-.26a1.36,1.36,0,0,0,1.37-1.67,1.52,1.52,0,0,0-1.8-1.47c-5.64.23-11.27.57-16.91.73q-7.73.21-15.45.59c-5.78.29-11.57.44-17.36.65H358l-2.34.05a9.85,9.85,0,0,0-2.6.17c-5.49.05-11,.34-16.46.59-3.79.18-7.58.23-11.37.34a3.17,3.17,0,0,0-.44,0c-.94.16-1.71.49-1.63,1.65a1.49,1.49,0,0,0,1.77,1.5c1,0,1.93-.21,2.89-.24,6.51-.22,13-.41,19.53-.62C350.29,145.49,353.25,145.36,356.21,145.25Zm-7.91,18.24c-2.48,0-4.95,0-7.43.21-4.37.27-8.76.11-13.12.43-3.54.25-7.1,0-10.62.5-1,.12-1.62.54-1.56,1.54a1.63,1.63,0,0,0,1.86,1.63c.43,0,.85-.2,1.28-.21l21.15-.63c2.72-.09,5.43-.23,8.15-.35.89.23,1.73-.2,2.61-.2,5.41,0,10.8-.35,16.2-.54,5.84-.21,11.69-.39,17.53-.59,5.5-.19,11-.34,16.49-.61,1.17,0,1.68-.53,1.66-1.71s-.6-1.56-1.66-1.55c-1.75,0-3.5.19-5.25.24-5.06.15-10.12.39-15.18.59-5.3.21-10.61.38-15.91.59S353.7,163.16,348.3,163.49ZM320.54,177v0c4.47-.21,8.94-.49,13.41-.6,5.07-.13,10.12-.38,15.18-.56,5.59-.21,11.18-.39,16.78-.6,5-.2,10.11-.36,15.17-.59,6.8-.31,13.62-.39,20.43-.66,3-.12,5.94-.29,8.91-.29a3,3,0,0,0,1.12-.26,1.42,1.42,0,0,0,.92-1.5,1.53,1.53,0,0,0-1-1.48,3,3,0,0,0-1.87-.2c-3.24.52-6.51.26-9.76.45-4.95.29-9.92.46-14.88.62-7.88.26-15.75.59-23.63.89-4.91.2-9.82.41-14.73.57-5.69.19-11.38.43-17.07.64-3.9.14-7.79.21-11.69.33a5.78,5.78,0,0,0-1,.16,1.39,1.39,0,0,0-1.26,1.66,1.41,1.41,0,0,0,1.57,1.38Zm-.62-19.35a33.87,33.87,0,0,0,3.38-.25c7.35-.06,14.69-.39,22-.55,5.45-.11,10.89-.35,16.35-.34,1.26,0,1.79-.51,1.81-1.7,0-1.38-.56-2.12-1.81-2.1s-2.52.22-3.78.23c-6.47.07-12.93.36-19.4.56-6.95.22-13.9.34-20.85.61-1.22.05-1.62.43-1.61,1.63s.43,2.05,1.87,1.92C318.45,157.55,319,157.6,319.92,157.6Zm54.31-1.74c5.73-.51,11.48-.23,17.22-.52,6.47-.33,13-.28,19.44-.39.34,0,.68,0,1,0,1.51.11,1.74-.76,1.76-2s-.39-1.84-1.77-1.78q-8.31.36-16.63.58c-5.46.15-10.91.2-16.37.36-2.87.08-5.73.36-8.6.26-1.14,0-1.49.7-1.44,1.59s0,2,1.42,1.94S372.91,155.86,374.23,155.86Z" transform="translate(-63.3 -61.8)"/><path class="illustration-cls-4" d="M150.57,279.19l-.16-.17c.12-.16.21-.07.29,0Z" transform="translate(-63.3 -61.8)"/><path class="illustration-cls-4" d="M157.66,124.21a3.36,3.36,0,0,1,3.5,3.46,3.75,3.75,0,0,1-3.55,3.56,3.71,3.71,0,0,1-3.48-3.6A3.35,3.35,0,0,1,157.66,124.21Z" transform="translate(-63.3 -61.8)"/><path class="illustration-cls-7" d="M320.54,177h-3.36a1.41,1.41,0,0,1-1.57-1.38,1.39,1.39,0,0,1,1.26-1.66,5.78,5.78,0,0,1,1-.16c3.9-.12,7.79-.19,11.69-.33,5.69-.21,11.38-.45,17.07-.64,4.91-.16,9.82-.37,14.73-.57,7.88-.3,15.75-.63,23.63-.89,5-.16,9.93-.33,14.88-.62,3.25-.19,6.52.07,9.76-.45a3,3,0,0,1,1.87.2,1.53,1.53,0,0,1,1,1.48,1.42,1.42,0,0,1-.92,1.5,3,3,0,0,1-1.12.26c-3,0-5.94.17-8.91.29-6.81.27-13.63.35-20.43.66-5.06.23-10.12.39-15.17.59-5.6.21-11.19.39-16.78.6-5.06.18-10.11.43-15.18.56-4.47.11-8.94.39-13.41.6Z" transform="translate(-63.3 -61.8)"/><path class="illustration-cls-1" d="M348.3,163.49c5.4-.33,10.8-.45,16.2-.66s10.61-.38,15.91-.59c5.06-.2,10.12-.44,15.18-.59,1.75-.05,3.5-.22,5.25-.24,1.06,0,1.63.42,1.66,1.55s-.49,1.66-1.66,1.71c-5.49.27-11,.42-16.49.61-5.84.2-11.69.38-17.53.59-5.4.19-10.79.52-16.2.54-.88,0-1.72.43-2.61.2A8.64,8.64,0,0,1,348.3,163.49Z" transform="translate(-63.3 -61.8)"/><path class="illustration-cls-7" d="M319.92,157.6c-.93,0-1.47,0-2,0-1.44.13-1.85-.59-1.87-1.92s.39-1.58,1.61-1.63c6.95-.27,13.9-.39,20.85-.61,6.47-.2,12.93-.49,19.4-.56,1.26,0,2.52-.21,3.78-.23s1.84.72,1.81,2.1c0,1.19-.55,1.71-1.81,1.7-5.46,0-10.9.23-16.35.34-7.35.16-14.69.49-22,.55A33.87,33.87,0,0,1,319.92,157.6Z" transform="translate(-63.3 -61.8)"/><path class="illustration-cls-1" d="M355.63,142.18l2.34-.05c0,.19,0,.42.29.41s.26-.23.29-.42c5.79-.21,11.58-.36,17.36-.65q7.72-.39,15.45-.59c5.64-.16,11.27-.5,16.91-.73a1.52,1.52,0,0,1,1.8,1.47,1.36,1.36,0,0,1-1.37,1.67c-1.16.13-2.32.23-3.49.26-7.15.18-14.31.33-21.45.63-5.45.23-10.9.36-16.34.63-3.73.18-7.49,0-11.21.44A7.36,7.36,0,0,1,355.63,142.18Z" transform="translate(-63.3 -61.8)"/><path class="illustration-cls-7" d="M374.23,155.86c-1.32,0-2.64,0-4,0s-1.36-1.07-1.42-1.94.3-1.63,1.44-1.59c2.87.1,5.73-.18,8.6-.26,5.46-.16,10.91-.21,16.37-.36s11.09-.34,16.63-.58c1.38-.06,1.78.48,1.77,1.78s-.25,2.14-1.76,2c-.34,0-.68,0-1,0-6.48.11-13,.06-19.44.39C385.71,155.63,380,155.35,374.23,155.86Z" transform="translate(-63.3 -61.8)"/><path class="illustration-cls-7" d="M348.3,163.49a8.64,8.64,0,0,0-.29,3.12c-2.72.12-5.43.26-8.15.35l-21.15.63c-.43,0-.85.2-1.28.21a1.63,1.63,0,0,1-1.86-1.63c-.06-1,.59-1.42,1.56-1.54,3.52-.47,7.08-.25,10.62-.5,4.36-.32,8.75-.16,13.12-.43C343.35,163.54,345.82,163.5,348.3,163.49Z" transform="translate(-63.3 -61.8)"/><path class="illustration-cls-7" d="M355.63,142.18a7.36,7.36,0,0,0,.58,3.07c-3,.11-5.92.24-8.89.34-6.51.21-13,.4-19.53.62-1,0-1.93.2-2.89.24a1.49,1.49,0,0,1-1.77-1.5c-.08-1.16.69-1.49,1.63-1.65a3.17,3.17,0,0,1,.44,0c3.79-.11,7.58-.16,11.37-.34,5.48-.25,11-.54,16.46-.59A9.85,9.85,0,0,1,355.63,142.18Z" transform="translate(-63.3 -61.8)"/><path class="illustration-cls-7" d="M358.55,142.12c0,.19-.05.42-.29.42s-.26-.22-.29-.41Z" transform="translate(-63.3 -61.8)"/></svg>