<svg id="Layer_1_anything" data-name="Layer logo" xmlns="http://www.w3.org/2000/svg" viewBox="0 0 367.21 103.72"><defs><style>.cls-1{fill:#6230ff;}.cls-2{fill:#e033f2;}</style></defs><title>logo</title><path d="M330.78,113c.41-2.25,1.3-4.55,1.13-6.76-.51-6.73-1.3-13.45-2.21-20.14-1-7.17.67-9.43,7.86-9.09,5.06.24,8.34-1,8.83-6.64.15-1.82.62-4.11,1.83-5.21,1.58-1.44,4-1.91,6.14-2.8.42,1.71,1.37,3.48,1.17,5.12-.46,3.9-1.61,7.72-2.17,11.61a49.36,49.36,0,0,0-.06,7l1.62.81c1.49-1.88,3.43-3.55,4.39-5.66,2.07-4.61,3.54-9.48,5.48-14.15.68-1.62,1.71-3.52,3.13-4.33,3.11-1.78,5.45,0,4.95,3.63-1,7-2.15,14.06-3.46,22.53,3.59-2.45,6-4.43,8.7-5.8,1.57-.79,3.65-.61,5.5-.86-.73,2.07-.88,4.73-2.29,6.07-2.69,2.55-6.41,4-9.11,6.57a22.58,22.58,0,0,0-5.34,7.86c-2.32,5.92-3.81,12.16-6.05,18.12a19.86,19.86,0,0,1-4.38,6.48c-3.26,3.39-7.31,4.75-11.78,2.45s-4.77-6.35-3.8-10.7c2-8.72,8.55-14,14.87-19.25,3.35-2.79,5.93-5.52,5.44-8.71-3.37,1.83-7.16,5.63-10.69,5.4-5.61-.37-5.89-6.35-6.51-11.48h-8.46c.61,5.43,1.72,10.78,1.68,16.12a42.28,42.28,0,0,1-2.38,14.24c-.82,2.19-4.54,4.61-6.86,4.53s-5.71-2.82-6.39-5.07c-2-6.57-2.84-13.48-4.2-20.58-5.55,2.92-11.58,5.24-16.25-1.94-12.5,7.26-18.21,6.46-25-2.47-7.08,2.87-13.75,5.74-20.56,8.23-1.82.66-4.47.87-6,0-2-1.09-4-3.35-4.36-5.4-.2-1.12,2.85-3.08,4.71-4.19.94-.57,2.49-.1,5.13-.1l-4.43-8.1c-6.35,5.34-11.66,11.29-18.24,14.94-7.22,4-15,2.42-20.93-3.16-4.27,1.76-8,4.05-12.09,4.81-5.44,1-7.26-3.21-7.94-8.71-1.55,2.38-2.25,4.32-3.63,5.36-2,1.5-4.7,3.57-6.6,3.14-2.25-.51-5.18-3.14-5.67-5.33A40.34,40.34,0,0,1,178.6,65c.83-1.77,4.24-2.33,8-4.19C185.13,70.64,184,78.33,182.9,86l2.46.83c1.47-2,3.32-3.74,4.31-5.92a116.56,116.56,0,0,0,5.18-13.66c1.22-3.92,3.32-5.75,8.25-4.53-.22,2.37-.3,4.89-.72,7.35-.67,3.88-2,7.7-2.24,11.6-.18,2.39,1,4.89,1.62,7.33,3.8-1,6.12-2.85,6.33-7.28.17-3.48.65-7.45,2.49-10.2a26.3,26.3,0,0,1,9.34-8.38c5-2.58,10.78-.58,13,3.29,2.4,4.22,1.4,10.33-2.59,13.89a27.45,27.45,0,0,1-5.7,3.53c-1.94,1-4,1.73-6.41,2.73,3.82,4.34,8,3.54,12.16,2.14,6.09-2,9.84-6.75,12.71-12.2,1.92-3.65,3.51-7.48,5.37-11.16,2-4,5.14-5,10.15-2.86-8.72,10.93,6.06,16.15,5.32,25.44,7.91-2.71,9.87-6.49,9.72-18.49a7.82,7.82,0,0,1-2.48-.64c-1.34-.89-3.68-2.36-3.5-3,.43-1.6,2-4,3.24-4.06,3.51-.14,3.93-1.93,4.85-4.77a130,130,0,0,1,8-19.67c2-3.92,6.14-6.79,10.88-5.17s5.46,6.45,4.44,10.46c-1.62,6.32-4.37,12.36-6.69,18.65a11.55,11.55,0,0,1,3.57.32,21.49,21.49,0,0,1,4.2,2.49c-1.09,1.37-2,3.68-3.29,3.93-4.38.82-8.91.9-14.46,1.36.24,4.13.27,8.35.78,12.51.53,4.36,2.78,7.44,7.67,7.36,4.26-.06,8.79-4.19,9.47-8.19.83-4.8,1.73-9.6,2.75-14.36.69-3.21,2.94-5.34,6.05-4.09,1.34.53,2.35,3.75,2.22,5.65-.31,4.28-1.7,8.48-2.11,12.76-.27,2.86-1.93,7.6,2.6,7.73,3.58.11,6.24-3.26,6.71-7.74.8-7.64,1.61-15.37,3.49-22.79s4.92-14.53,7.78-21.64c1-2.37,2.53-5,4.57-6.29,2.6-1.69,6.64-3.75,8.84-2.81,2.53,1.08,4.86,5.11,5.31,8.14,1.29,8.76-2.05,16.66-6.79,23.86-2.78,4.23-5.66,8.58-9.33,12C328.25,75.31,327,79.66,327.2,85c.36,9.27.55,18.54.81,27.8ZM329.3,66.13c10.73-11.23,15.48-27,10-32.44C333.2,43.36,331.8,54.23,329.3,66.13ZM291.1,39c-4.38,3.19-7.64,13.7-6.21,20C291.91,52.23,294.05,45.32,291.1,39ZM358.66,107l-2.79-1.37c-2.77,4.63-5.68,9.19-8.2,14-.44.83.75,2.53,1.19,3.83,1.23-.6,3.13-.88,3.6-1.84C354.73,116.82,356.63,111.88,358.66,107ZM216.29,79.43,218,80.81c2.41-1.57,5.3-2.75,7.06-4.86,1-1.22.22-3.94.24-6-1.94.49-4.68.37-5.65,1.62C218,73.75,217.35,76.77,216.29,79.43Z" transform="translate(-16.4 -27.22)"/><path d="M148.78,95.39c2.11,4,4,7.4,5.76,10.88,3.93,7.66,9.38,8.46,15.56,2.23,1.05-1.06,2-2.2,3-3.31l1.81.34c-.18,2.27.36,5-.68,6.74-3.34,5.67-8.33,8.83-15.29,8.75-6.67-.09-10.9-3.42-13.77-9-1.46-2.84-2.36-6.09-4.32-8.5-2.24-2.75-5-5.93-8.18-6.91-10.48-3.27-16-10.32-17.18-20.72-1.29-11.37,1.12-22,8.22-31.32S144,31.18,154.53,34.88c10.09,3.55,15.89,12.82,15.34,25.56C169.22,75.82,164,88.7,148.78,95.39ZM125.94,69.68c-.11,10.44,4,17.35,11,18.61,8.37,1.49,16.77-3.54,19.55-13.34a66.87,66.87,0,0,0,2-20.46,12.43,12.43,0,0,0-9.57-12c-5.88-1.62-10.75.36-14.87,4.44C127.81,53.23,126.07,61.18,125.94,69.68Z" transform="translate(-16.4 -27.22)"/><path class="cls-1" d="M29.32,44C25.48,56.58,24.64,69.1,29,81.56,34.07,96.4,46.09,105,61.83,105.25c12.17.23,23.91,2.22,34.69,8.17,2.7,1.49,6.23,2.93,4.21,7.21-2.12,4.52-7.47,7.2-11,5.05-18.21-11.06-36.68-8-55.29-1.47a3.24,3.24,0,0,1-2.64,0L42,114.94c-19.42-10.7-28-26.88-25-48.55C18.26,57.52,22.64,50.07,29.32,44Z" transform="translate(-16.4 -27.22)"/><path class="cls-2" d="M77.78,100.77c20.56-18.44,14.36-38.84,3.46-49.15-13.78-13-32.16-10-49.72,8.58,1.32-5.08,2.51-9.35,3.54-13.66,2.4-10.11,9.69-14.34,19.14-15.38,29.5-3.23,51,20.6,49.36,44.94a47.64,47.64,0,0,1-7.22,22.74c-2.63,4.21-5.57,5.66-10.29,3.84C83.63,101.76,81,101.48,77.78,100.77Z" transform="translate(-16.4 -27.22)"/><path d="M308.72,57.65c-1.64-2-4.4-3.82-4.68-6-.54-4,2.69-6,6.46-6.09,3.21-.07,6.28,1.2,6.19,5S314.05,56.63,308.72,57.65Z" transform="translate(-16.4 -27.22)"/></svg>