<svg width="32" height="61" viewBox="0 0 66 87" fill="none" xmlns="http://www.w3.org/2000/svg">
<g filter="url(#filter0_d_175_3575)">
<path d="M48.8629 46.4864C44.3676 52.9064 38.4965 57.431 32.6594 59.571C26.8203 61.7118 21.0641 61.4544 16.7112 58.4066C12.3584 55.3587 10.1478 50.0376 10.1624 43.8185C10.1769 37.6015 12.4207 30.5369 16.916 24.1169C21.4114 17.6969 27.2825 13.1723 33.1195 11.0322C38.9586 8.89148 44.7149 9.14884 49.0677 12.1967C53.4205 15.2446 55.6311 20.5657 55.6166 26.7848C55.602 33.0018 53.3583 40.0664 48.8629 46.4864Z" fill="#FFCB13" stroke="#E9E9E9"/>
<path fill-rule="evenodd" clip-rule="evenodd" d="M22.2949 78.2367C19.5777 78.2943 19.6148 75.0226 21.9848 73.6924C27.21 70.7597 32.3552 66.1054 36.5659 60.0919C46.7028 45.6149 47.5854 28.743 38.5373 22.4075C38.1314 22.1233 38.2259 21.4684 38.7122 21.3739C43.1296 20.515 47.2601 21.1128 50.5373 23.4075C59.5854 29.743 58.7028 46.6149 48.5659 61.0919C41.1514 71.6808 30.8396 78.0556 22.2949 78.2367Z" fill="#1B1B1B"/>
</g>
<defs>
<filter id="filter0_d_175_3575" x="-3.95859" y="0.315628" width="73.6961" height="85.9251" filterUnits="userSpaceOnUse" color-interpolation-filters="sRGB">
<feFlood flood-opacity="0" result="BackgroundImageFix"/>
<feColorMatrix in="SourceAlpha" type="matrix" values="0 0 0 0 0 0 0 0 0 0 0 0 0 0 0 0 0 0 127 0" result="hardAlpha"/>
<feOffset dy="4"/>
<feGaussianBlur stdDeviation="2"/>
<feComposite in2="hardAlpha" operator="out"/>
<feColorMatrix type="matrix" values="0 0 0 0 0 0 0 0 0 0 0 0 0 0 0 0 0 0 0.25 0"/>
<feBlend mode="normal" in2="BackgroundImageFix" result="effect1_dropShadow_175_3575"/>
<feBlend mode="normal" in="SourceGraphic" in2="effect1_dropShadow_175_3575" result="shape"/>
</filter>
</defs>
</svg>
